<?xml version="1.0" encoding="UTF-8" standalone="no"?>
<!DOCTYPE svg PUBLIC "-//W3C//DTD SVG 1.1//EN"
 "http://www.w3.org/Graphics/SVG/1.1/DTD/svg11.dtd">
<!-- Generated by graphviz version 2.40.1 (20161225.0304)
 -->
<!-- Title: unix Pages: 1 -->
<svg xmlns="http://www.w3.org/2000/svg" xmlns:xlink="http://www.w3.org/1999/xlink" style="width:1077;height:948;" width="1077pt" height="948pt" viewBox="0 0 1077 948">
<g id="graph0" class="graph" transform="scale(1 1) rotate(0) translate(4 944)">
<title>unix</title>
<polygon fill="#ffffff" stroke="transparent" points="-4,4 -4,-944 1072.5,-944 1072.5,4 -4,4"/>
<!-- cl74 -->
<g id="node1" class="node">
<title>cl74</title>
<path fill="#f8f8f8" stroke="#383838" d="M243.5,-821.5C243.5,-821.5 331.5,-821.5 331.5,-821.5 337.5,-821.5 343.5,-827.5 343.5,-833.5 343.5,-833.5 343.5,-854.5 343.5,-854.5 343.5,-860.5 337.5,-866.5 331.5,-866.5 331.5,-866.5 243.5,-866.5 243.5,-866.5 237.5,-866.5 231.5,-860.5 231.5,-854.5 231.5,-854.5 231.5,-833.5 231.5,-833.5 231.5,-827.5 237.5,-821.5 243.5,-821.5"/>
<polygon fill="#f8f8f8" stroke="transparent" points="239.5,-844.5 239.5,-862.5 335.5,-862.5 335.5,-844.5 239.5,-844.5"/>
<text text-anchor="start" x="241.2925" y="-849.3" font-family="Courier,monospace" font-size="14.00" fill="#000000">authnFailed</text>
<polyline fill="none" stroke="#383838" points="231.5,-840.5 343.5,-840.5 "/>
<text text-anchor="start" x="286.125" y="-827.7" font-family="Times,serif" font-size="11.00" fill="#000000"> </text>
</g>
<!-- cl76 -->
<g id="node2" class="node">
<title>cl76</title>
<path fill="#f8f8f8" stroke="#383838" d="M293.5,-704.5C293.5,-704.5 381.5,-704.5 381.5,-704.5 387.5,-704.5 393.5,-710.5 393.5,-716.5 393.5,-716.5 393.5,-737.5 393.5,-737.5 393.5,-743.5 387.5,-749.5 381.5,-749.5 381.5,-749.5 293.5,-749.5 293.5,-749.5 287.5,-749.5 281.5,-743.5 281.5,-737.5 281.5,-737.5 281.5,-716.5 281.5,-716.5 281.5,-710.5 287.5,-704.5 293.5,-704.5"/>
<polygon fill="#f8f8f8" stroke="transparent" points="289.5,-727.5 289.5,-745.5 385.5,-745.5 385.5,-727.5 289.5,-727.5"/>
<text text-anchor="start" x="291.2925" y="-732.3" font-family="Courier,monospace" font-size="14.00" fill="#000000">idpSelected</text>
<polyline fill="none" stroke="#383838" points="281.5,-723.5 393.5,-723.5 "/>
<text text-anchor="start" x="336.125" y="-710.7" font-family="Times,serif" font-size="11.00" fill="#000000"> </text>
</g>
<!-- cl74&#45;&gt;cl76 -->
<g id="edge1" class="edge">
<title>cl74&#45;&gt;cl76</title>
<path fill="none" stroke="#383838" d="M252.2392,-821.2148C238.1763,-809.1696 227.2308,-793.837 236.2886,-779 244.7277,-765.1765 258.1418,-754.8738 272.479,-747.2546"/>
<polygon fill="#383838" stroke="#383838" points="281.489,-742.8498 274.4815,-751.2846 276.997,-745.0459 272.5051,-747.2419 272.5051,-747.2419 272.5051,-747.2419 276.997,-745.0459 270.5286,-743.1991 281.489,-742.8498 281.489,-742.8498"/>
<text text-anchor="start" x="236.5" y="-781.6" font-family="Courier,monospace" font-size="13.00" fill="#000000">selectIdp</text>
</g>
<!-- cl76&#45;&gt;cl74 -->
<g id="edge3" class="edge">
<title>cl76&#45;&gt;cl74</title>
<path fill="none" stroke="#383838" d="M327.7185,-749.8887C320.1207,-767.6675 309.4959,-792.5296 301.0746,-812.2353"/>
<polygon fill="#383838" stroke="#383838" points="297.1405,-821.4412 296.9323,-810.4773 299.1054,-816.8435 301.0703,-812.2457 301.0703,-812.2457 301.0703,-812.2457 299.1054,-816.8435 305.2083,-814.0141 297.1405,-821.4412 297.1405,-821.4412"/>
<text text-anchor="start" x="314.5" y="-781.6" font-family="Courier,monospace" font-size="13.00" fill="#000000">authenticationFailed</text>
</g>
<!-- cl83 -->
<g id="node3" class="node">
<title>cl83</title>
<path fill="#f8f8f8" stroke="#383838" d="M12,-294C12,-294 117,-294 117,-294 123,-294 129,-300 129,-306 129,-306 129,-327 129,-327 129,-333 123,-339 117,-339 117,-339 12,-339 12,-339 6,-339 0,-333 0,-327 0,-327 0,-306 0,-306 0,-300 6,-294 12,-294"/>
<polygon fill="#f8f8f8" stroke="transparent" points="8,-317 8,-335 121,-335 121,-317 8,-317"/>
<text text-anchor="start" x="10.3911" y="-321.8" font-family="Courier,monospace" font-size="14.00" fill="#000000">fraudResponse</text>
<polyline fill="none" stroke="#383838" points="0,-313 129,-313 "/>
<text text-anchor="start" x="63.125" y="-300.2" font-family="Times,serif" font-size="11.00" fill="#000000"> </text>
</g>
<!-- cl76&#45;&gt;cl83 -->
<g id="edge4" class="edge">
<title>cl76&#45;&gt;cl83</title>
<path fill="none" stroke="#383838" d="M281.0599,-714.0936C236.6828,-701.0281 176.6692,-676.3904 141.5,-633 72.8316,-548.2797 63.9245,-411.5989 63.7089,-349.3158"/>
<polygon fill="#383838" stroke="#383838" points="63.7489,-339.2778 68.209,-349.2956 63.7289,-344.2777 63.709,-349.2777 63.709,-349.2777 63.709,-349.2777 63.7289,-344.2777 59.209,-349.2597 63.7489,-339.2778 63.7489,-339.2778"/>
<text text-anchor="start" x="190.5" y="-664.6" font-family="Courier,monospace" font-size="13.00" fill="#000000">fraudResponse</text>
</g>
<!-- cl121 -->
<g id="node6" class="node">
<title>cl121</title>
<path fill="#f8f8f8" stroke="#383838" d="M166.5,-.5C166.5,-.5 1056.5,-.5 1056.5,-.5 1062.5,-.5 1068.5,-6.5 1068.5,-12.5 1068.5,-12.5 1068.5,-620.5 1068.5,-620.5 1068.5,-626.5 1062.5,-632.5 1056.5,-632.5 1056.5,-632.5 166.5,-632.5 166.5,-632.5 160.5,-632.5 154.5,-626.5 154.5,-620.5 154.5,-620.5 154.5,-12.5 154.5,-12.5 154.5,-6.5 160.5,-.5 166.5,-.5"/>
<polygon fill="#f8f8f8" stroke="transparent" points="576,-610.5 576,-628.5 647,-628.5 647,-610.5 576,-610.5"/>
<text text-anchor="start" x="578.3945" y="-615.3" font-family="Courier,monospace" font-size="14.00" fill="#000000">matching</text>
<polyline fill="none" stroke="#383838" points="154.5,-606.5 1068.5,-606.5 "/>
<polygon fill="#ffffff" stroke="transparent" points="162.5,-4.5 162.5,-602.5 1060.5,-602.5 1060.5,-4.5 162.5,-4.5"/>
<svg x="164.5" y="-600.5">
<g id="graph0" class="graph" transform="scale(1 1) rotate(0) translate(4 591)">
<title>unix</title>
<polygon fill="#ffffff" stroke="transparent" points="-4,4 -4,-591 890.0063,-591 890.0063,4 -4,4"/>
<!-- cl93 -->
<g id="node1" class="node">
<title>cl93</title>
<ellipse fill="#000000" stroke="#000000" cx="542" cy="-580" rx="7" ry="7"/>
</g>
<!-- cl95 -->
<g id="node2" class="node">
<title>cl95</title>
<path fill="#f8f8f8" stroke="#383838" d="M435,-468.5C435,-468.5 649,-468.5 649,-468.5 655,-468.5 661,-474.5 661,-480.5 661,-480.5 661,-501.5 661,-501.5 661,-507.5 655,-513.5 649,-513.5 649,-513.5 435,-513.5 435,-513.5 429,-513.5 423,-507.5 423,-501.5 423,-501.5 423,-480.5 423,-480.5 423,-474.5 429,-468.5 435,-468.5"/>
<polygon fill="#f8f8f8" stroke="transparent" points="431,-491.5 431,-509.5 653,-509.5 653,-491.5 431,-491.5"/>
<text text-anchor="start" x="432.7822" y="-496.3" font-family="Courier,monospace" font-size="14.00" fill="#000000">cycle0And1MatchRequestSent</text>
<polyline fill="none" stroke="#383838" points="423,-487.5 661,-487.5 "/>
<text text-anchor="start" x="540.625" y="-474.7" font-family="Times,serif" font-size="11.00" fill="#000000"> </text>
</g>
<!-- cl93&#45;&gt;cl95 -->
<g id="edge1" class="edge">
<title>cl93&#45;&gt;cl95</title>
<path fill="none" stroke="#383838" d="M542,-572.7168C542,-562.0973 542,-541.6921 542,-523.9298"/>
<polygon fill="#383838" stroke="#383838" points="542,-513.8709 546.5001,-523.8709 542,-518.8709 542.0001,-523.8709 542.0001,-523.8709 542.0001,-523.8709 542,-518.8709 537.5001,-523.871 542,-513.8709 542,-513.8709"/>
</g>
<!-- cl98 -->
<g id="node3" class="node">
<title>cl98</title>
<path fill="#f8f8f8" stroke="#383838" d="M119.5,-.5C119.5,-.5 232.5,-.5 232.5,-.5 238.5,-.5 244.5,-6.5 244.5,-12.5 244.5,-12.5 244.5,-33.5 244.5,-33.5 244.5,-39.5 238.5,-45.5 232.5,-45.5 232.5,-45.5 119.5,-45.5 119.5,-45.5 113.5,-45.5 107.5,-39.5 107.5,-33.5 107.5,-33.5 107.5,-12.5 107.5,-12.5 107.5,-6.5 113.5,-.5 119.5,-.5"/>
<polygon fill="#f8f8f8" stroke="transparent" points="115.5,-23.5 115.5,-41.5 236.5,-41.5 236.5,-23.5 115.5,-23.5"/>
<text text-anchor="start" x="117.6904" y="-28.3" font-family="Courier,monospace" font-size="14.00" fill="#000000">matchingFailed</text>
<polyline fill="none" stroke="#383838" points="107.5,-19.5 244.5,-19.5 "/>
<text text-anchor="start" x="174.625" y="-6.7" font-family="Times,serif" font-size="11.00" fill="#000000"> </text>
</g>
<!-- cl95&#45;&gt;cl98 -->
<g id="edge2" class="edge">
<title>cl95&#45;&gt;cl98</title>
<path fill="none" stroke="#383838" d="M422.7205,-477.0924C263.1403,-456.8368 0,-416.928 0,-374 0,-374 0,-374 0,-140 0,-89.5404 50.7924,-59.53 97.8049,-42.5602"/>
<polygon fill="#383838" stroke="#383838" points="107.4498,-39.2362 99.4619,-46.749 102.7227,-40.8654 97.9956,-42.4946 97.9956,-42.4946 97.9956,-42.4946 102.7227,-40.8654 96.5293,-38.2402 107.4498,-39.2362 107.4498,-39.2362"/>
<text text-anchor="start" x="0" y="-253.1" font-family="Courier,monospace" font-size="13.00" fill="#000000">noMatch</text>
</g>
<!-- cl101 -->
<g id="node4" class="node">
<title>cl101</title>
<path fill="#f8f8f8" stroke="#383838" d="M228.5,-351.5C228.5,-351.5 375.5,-351.5 375.5,-351.5 381.5,-351.5 387.5,-357.5 387.5,-363.5 387.5,-363.5 387.5,-384.5 387.5,-384.5 387.5,-390.5 381.5,-396.5 375.5,-396.5 375.5,-396.5 228.5,-396.5 228.5,-396.5 222.5,-396.5 216.5,-390.5 216.5,-384.5 216.5,-384.5 216.5,-363.5 216.5,-363.5 216.5,-357.5 222.5,-351.5 228.5,-351.5"/>
<polygon fill="#f8f8f8" stroke="transparent" points="224.5,-374.5 224.5,-392.5 379.5,-392.5 379.5,-374.5 224.5,-374.5"/>
<text text-anchor="start" x="226.8877" y="-379.3" font-family="Courier,monospace" font-size="14.00" fill="#000000">awaitingCycle3Data</text>
<polyline fill="none" stroke="#383838" points="216.5,-370.5 387.5,-370.5 "/>
<text text-anchor="start" x="300.625" y="-357.7" font-family="Times,serif" font-size="11.00" fill="#000000"> </text>
</g>
<!-- cl95&#45;&gt;cl101 -->
<g id="edge3" class="edge">
<title>cl95&#45;&gt;cl101</title>
<path fill="none" stroke="#383838" d="M495.7256,-468.4412C456.3419,-449.2417 399.66,-421.6092 357.7764,-401.191"/>
<polygon fill="#383838" stroke="#383838" points="348.5412,-396.6888 359.5019,-397.026 353.0356,-398.8799 357.53,-401.0709 357.53,-401.0709 357.53,-401.0709 353.0356,-398.8799 355.558,-405.1159 348.5412,-396.6888 348.5412,-396.6888"/>
<text text-anchor="start" x="430" y="-428.6" font-family="Courier,monospace" font-size="13.00" fill="#000000">awaitCycle3Data</text>
</g>
<!-- cl104 -->
<g id="node5" class="node">
<title>cl104</title>
<path fill="#f8f8f8" stroke="#383838" d="M377,-117.5C377,-117.5 625,-117.5 625,-117.5 631,-117.5 637,-123.5 637,-129.5 637,-129.5 637,-150.5 637,-150.5 637,-156.5 631,-162.5 625,-162.5 625,-162.5 377,-162.5 377,-162.5 371,-162.5 365,-156.5 365,-150.5 365,-150.5 365,-129.5 365,-129.5 365,-123.5 371,-117.5 377,-117.5"/>
<polygon fill="#f8f8f8" stroke="transparent" points="373,-140.5 373,-158.5 629,-158.5 629,-140.5 373,-140.5"/>
<text text-anchor="start" x="374.9795" y="-145.3" font-family="Courier,monospace" font-size="14.00" fill="#000000">userAccountCreationRequestSent</text>
<polyline fill="none" stroke="#383838" points="365,-136.5 637,-136.5 "/>
<text text-anchor="start" x="499.625" y="-123.7" font-family="Times,serif" font-size="11.00" fill="#000000"> </text>
</g>
<!-- cl95&#45;&gt;cl104 -->
<g id="edge4" class="edge">
<title>cl95&#45;&gt;cl104</title>
<path fill="none" stroke="#383838" d="M550.9769,-468.3541C574.668,-406.9773 635.1146,-238.9081 606,-192 599.9846,-182.3083 591.5667,-174.3675 582.0874,-167.8755"/>
<polygon fill="#383838" stroke="#383838" points="573.5176,-162.5358 584.3846,-164.0048 577.7612,-165.18 582.0049,-167.8241 582.0049,-167.8241 582.0049,-167.8241 577.7612,-165.18 579.6251,-171.6434 573.5176,-162.5358 573.5176,-162.5358"/>
<text text-anchor="start" x="602" y="-311.6" font-family="Courier,monospace" font-size="13.00" fill="#000000">sendUserAccountCreationRequest</text>
</g>
<!-- cl107 -->
<g id="node6" class="node">
<title>cl107</title>
<path fill="#f8f8f8" stroke="#383838" d="M771,-117.5C771,-117.5 809,-117.5 809,-117.5 815,-117.5 821,-123.5 821,-129.5 821,-129.5 821,-150.5 821,-150.5 821,-156.5 815,-162.5 809,-162.5 809,-162.5 771,-162.5 771,-162.5 765,-162.5 759,-156.5 759,-150.5 759,-150.5 759,-129.5 759,-129.5 759,-123.5 765,-117.5 771,-117.5"/>
<polygon fill="#f8f8f8" stroke="transparent" points="767,-140.5 767,-158.5 813,-158.5 813,-140.5 767,-140.5"/>
<text text-anchor="start" x="768.9966" y="-145.3" font-family="Courier,monospace" font-size="14.00" fill="#000000">match</text>
<polyline fill="none" stroke="#383838" points="759,-136.5 821,-136.5 "/>
<text text-anchor="start" x="788.625" y="-123.7" font-family="Times,serif" font-size="11.00" fill="#000000"> </text>
</g>
<!-- cl95&#45;&gt;cl107 -->
<g id="edge5" class="edge">
<title>cl95&#45;&gt;cl107</title>
<path fill="none" stroke="#383838" d="M628.6655,-468.4791C699.9448,-444.8755 796.3787,-400.0621 842,-322 870.2448,-273.6706 837.8774,-209.0754 813.0554,-171.2596"/>
<polygon fill="#383838" stroke="#383838" points="807.2661,-162.7032 816.597,-168.4638 810.068,-166.8444 812.87,-170.9856 812.87,-170.9856 812.87,-170.9856 810.068,-166.8444 809.1429,-173.5073 807.2661,-162.7032 807.2661,-162.7032"/>
<text text-anchor="start" x="847" y="-311.6" font-family="Courier,monospace" font-size="13.00" fill="#000000">match</text>
</g>
<!-- cl101&#45;&gt;cl98 -->
<g id="edge9" class="edge">
<title>cl101&#45;&gt;cl98</title>
<path fill="none" stroke="#383838" d="M259.1802,-351.3066C212.6787,-323.8408 141.3531,-272.7219 113.7759,-205 92.5562,-152.8904 126.2239,-90.5342 151.7204,-53.9929"/>
<polygon fill="#383838" stroke="#383838" points="157.6624,-45.7208 155.4831,-56.468 154.7454,-49.7817 151.8283,-53.8427 151.8283,-53.8427 151.8283,-53.8427 154.7454,-49.7817 148.1735,-51.2173 157.6624,-45.7208 157.6624,-45.7208"/>
<text text-anchor="start" x="114" y="-194.6" font-family="Courier,monospace" font-size="13.00" fill="#000000">cancelCycle3Request</text>
</g>
<!-- cl110 -->
<g id="node7" class="node">
<title>cl110</title>
<path fill="#f8f8f8" stroke="#383838" d="M212,-234.5C212,-234.5 392,-234.5 392,-234.5 398,-234.5 404,-240.5 404,-246.5 404,-246.5 404,-267.5 404,-267.5 404,-273.5 398,-279.5 392,-279.5 392,-279.5 212,-279.5 212,-279.5 206,-279.5 200,-273.5 200,-267.5 200,-267.5 200,-246.5 200,-246.5 200,-240.5 206,-234.5 212,-234.5"/>
<polygon fill="#f8f8f8" stroke="transparent" points="208,-257.5 208,-275.5 396,-275.5 396,-257.5 208,-257.5"/>
<text text-anchor="start" x="209.585" y="-262.3" font-family="Courier,monospace" font-size="14.00" fill="#000000">cycle3MatchRequestSent</text>
<polyline fill="none" stroke="#383838" points="200,-253.5 404,-253.5 "/>
<text text-anchor="start" x="300.625" y="-240.7" font-family="Times,serif" font-size="11.00" fill="#000000"> </text>
</g>
<!-- cl101&#45;&gt;cl110 -->
<g id="edge10" class="edge">
<title>cl101&#45;&gt;cl110</title>
<path fill="none" stroke="#383838" d="M302,-351.4412C302,-333.992 302,-309.5775 302,-289.9434"/>
<polygon fill="#383838" stroke="#383838" points="302,-279.8887 306.5001,-289.8887 302,-284.8887 302.0001,-289.8887 302.0001,-289.8887 302.0001,-289.8887 302,-284.8887 297.5001,-289.8888 302,-279.8887 302,-279.8887"/>
<text text-anchor="start" x="302" y="-311.6" font-family="Courier,monospace" font-size="13.00" fill="#000000">submitCycle3Request</text>
</g>
<!-- cl104&#45;&gt;cl98 -->
<g id="edge11" class="edge">
<title>cl104&#45;&gt;cl98</title>
<path fill="none" stroke="#383838" d="M406.206,-117.4536C375.7484,-109.2755 342.1031,-99.2463 311.9683,-88 283.2595,-77.2859 252.361,-62.7707 227.2849,-50.1748"/>
<polygon fill="#383838" stroke="#383838" points="218.3246,-45.6316 229.2787,-46.1403 222.7842,-47.8928 227.2437,-50.1539 227.2437,-50.1539 227.2437,-50.1539 222.7842,-47.8928 225.2086,-54.1675 218.3246,-45.6316 218.3246,-45.6316"/>
<text text-anchor="start" x="312" y="-77.6" font-family="Courier,monospace" font-size="13.00" fill="#000000">userAccountCreationFailed</text>
</g>
<!-- cl118 -->
<g id="node8" class="node">
<title>cl118</title>
<path fill="#f8f8f8" stroke="#383838" d="M453.5,-.5C453.5,-.5 600.5,-.5 600.5,-.5 606.5,-.5 612.5,-6.5 612.5,-12.5 612.5,-12.5 612.5,-33.5 612.5,-33.5 612.5,-39.5 606.5,-45.5 600.5,-45.5 600.5,-45.5 453.5,-45.5 453.5,-45.5 447.5,-45.5 441.5,-39.5 441.5,-33.5 441.5,-33.5 441.5,-12.5 441.5,-12.5 441.5,-6.5 447.5,-.5 453.5,-.5"/>
<polygon fill="#f8f8f8" stroke="transparent" points="449.5,-23.5 449.5,-41.5 604.5,-41.5 604.5,-23.5 449.5,-23.5"/>
<text text-anchor="start" x="451.8877" y="-28.3" font-family="Courier,monospace" font-size="14.00" fill="#000000">userAccountCreated</text>
<polyline fill="none" stroke="#383838" points="441.5,-19.5 612.5,-19.5 "/>
<text text-anchor="start" x="525.625" y="-6.7" font-family="Times,serif" font-size="11.00" fill="#000000"> </text>
</g>
<!-- cl104&#45;&gt;cl118 -->
<g id="edge12" class="edge">
<title>cl104&#45;&gt;cl118</title>
<path fill="none" stroke="#383838" d="M506.0131,-117.4412C509.9085,-99.9116 515.3662,-75.3523 519.7395,-55.6723"/>
<polygon fill="#383838" stroke="#383838" points="521.9136,-45.8887 524.1371,-56.6268 520.8289,-50.7697 519.7442,-55.6506 519.7442,-55.6506 519.7442,-55.6506 520.8289,-50.7697 515.3514,-54.6744 521.9136,-45.8887 521.9136,-45.8887"/>
<text text-anchor="start" x="514" y="-77.6" font-family="Courier,monospace" font-size="13.00" fill="#000000">userAccountCreationSucceeded</text>
</g>
<!-- cl110&#45;&gt;cl98 -->
<g id="edge6" class="edge">
<title>cl110&#45;&gt;cl98</title>
<path fill="none" stroke="#383838" d="M289.6892,-234.137C267.0484,-192.0898 218.7673,-102.425 193.0118,-54.5933"/>
<polygon fill="#383838" stroke="#383838" points="188.1753,-45.6113 196.8785,-52.2825 190.5458,-50.0136 192.9163,-54.416 192.9163,-54.416 192.9163,-54.416 190.5458,-50.0136 188.9542,-56.5495 188.1753,-45.6113 188.1753,-45.6113"/>
<text text-anchor="start" x="250" y="-136.1" font-family="Courier,monospace" font-size="13.00" fill="#000000">noMatch</text>
</g>
<!-- cl110&#45;&gt;cl104 -->
<g id="edge7" class="edge">
<title>cl110&#45;&gt;cl104</title>
<path fill="none" stroke="#383838" d="M295.0908,-234.318C292.4094,-220.6984 291.8486,-203.7852 300.9619,-192 309.2341,-181.3026 329.975,-172.3967 355.1256,-165.1547"/>
<polygon fill="#383838" stroke="#383838" points="364.9639,-162.4604 356.5077,-169.442 360.1415,-163.7811 355.3191,-165.1018 355.3191,-165.1018 355.3191,-165.1018 360.1415,-163.7811 354.1304,-160.7616 364.9639,-162.4604 364.9639,-162.4604"/>
<text text-anchor="start" x="301" y="-194.6" font-family="Courier,monospace" font-size="13.00" fill="#000000">sendUserAccountCreationRequest</text>
</g>
<!-- cl110&#45;&gt;cl107 -->
<g id="edge8" class="edge">
<title>cl110&#45;&gt;cl107</title>
<path fill="none" stroke="#383838" d="M404.2531,-235.1589C445.5513,-226.1333 493.6161,-215.3698 537,-205 612.1018,-187.0488 699.2226,-164.2222 749.151,-150.9469"/>
<polygon fill="#383838" stroke="#383838" points="758.9245,-148.3439 750.4195,-155.266 754.0929,-149.6307 749.2614,-150.9176 749.2614,-150.9176 749.2614,-150.9176 754.0929,-149.6307 748.1032,-146.5691 758.9245,-148.3439 758.9245,-148.3439"/>
<text text-anchor="start" x="585" y="-194.6" font-family="Courier,monospace" font-size="13.00" fill="#000000">match</text>
</g>
</g>

</svg>
</g>
<!-- cl76&#45;&gt;cl121 -->
<g id="edge2" class="edge">
<title>cl76&#45;&gt;cl121</title>
<path fill="none" stroke="#383838" d="M352.6217,-704.345C362.7957,-689.1026 377.4871,-667.0924 394.7764,-641.1899"/>
<polygon fill="#383838" stroke="#383838" points="400.4787,-632.6469 398.6698,-643.4626 397.7028,-636.8056 394.9269,-640.9643 394.9269,-640.9643 394.9269,-640.9643 397.7028,-636.8056 391.1841,-638.4661 400.4787,-632.6469 400.4787,-632.6469"/>
<text text-anchor="start" x="377.5" y="-664.6" font-family="Courier,monospace" font-size="13.00" fill="#000000">authenticationSucceeded</text>
</g>
<!-- cl86 -->
<g id="node4" class="node">
<title>cl86</title>
<ellipse fill="#000000" stroke="#000000" cx="523.5" cy="-933" rx="7" ry="7"/>
</g>
<!-- cl88 -->
<g id="node5" class="node">
<title>cl88</title>
<path fill="#f8f8f8" stroke="#383838" d="M496.5,-821.5C496.5,-821.5 550.5,-821.5 550.5,-821.5 556.5,-821.5 562.5,-827.5 562.5,-833.5 562.5,-833.5 562.5,-854.5 562.5,-854.5 562.5,-860.5 556.5,-866.5 550.5,-866.5 550.5,-866.5 496.5,-866.5 496.5,-866.5 490.5,-866.5 484.5,-860.5 484.5,-854.5 484.5,-854.5 484.5,-833.5 484.5,-833.5 484.5,-827.5 490.5,-821.5 496.5,-821.5"/>
<polygon fill="#f8f8f8" stroke="transparent" points="492.5,-844.5 492.5,-862.5 554.5,-862.5 554.5,-844.5 492.5,-844.5"/>
<text text-anchor="start" x="494.0952" y="-849.3" font-family="Courier,monospace" font-size="14.00" fill="#000000">started</text>
<polyline fill="none" stroke="#383838" points="484.5,-840.5 562.5,-840.5 "/>
<text text-anchor="start" x="522.125" y="-827.7" font-family="Times,serif" font-size="11.00" fill="#000000"> </text>
</g>
<!-- cl86&#45;&gt;cl88 -->
<g id="edge5" class="edge">
<title>cl86&#45;&gt;cl88</title>
<path fill="none" stroke="#383838" d="M523.5,-925.7168C523.5,-915.0973 523.5,-894.6921 523.5,-876.9298"/>
<polygon fill="#383838" stroke="#383838" points="523.5,-866.8709 528.0001,-876.8709 523.5,-871.8709 523.5001,-876.8709 523.5001,-876.8709 523.5001,-876.8709 523.5,-871.8709 519.0001,-876.871 523.5,-866.8709 523.5,-866.8709"/>
</g>
<!-- cl88&#45;&gt;cl76 -->
<g id="edge6" class="edge">
<title>cl88&#45;&gt;cl76</title>
<path fill="none" stroke="#383838" d="M511.7621,-821.4917C503.5216,-807.5922 491.3399,-790.3134 476.5,-779 455.0647,-762.6585 427.9365,-750.9893 403.3477,-742.9025"/>
<polygon fill="#383838" stroke="#383838" points="393.7091,-739.869 404.5989,-738.5788 398.4785,-741.3701 403.2479,-742.8712 403.2479,-742.8712 403.2479,-742.8712 398.4785,-741.3701 401.8969,-747.1636 393.7091,-739.869 393.7091,-739.869"/>
<text text-anchor="start" x="489.5" y="-781.6" font-family="Courier,monospace" font-size="13.00" fill="#000000">selectIdp</text>
</g>
</g>
</svg>
