<?xml version="1.0" encoding="UTF-8" standalone="no"?>
<!DOCTYPE svg PUBLIC "-//W3C//DTD SVG 1.1//EN"
 "http://www.w3.org/Graphics/SVG/1.1/DTD/svg11.dtd">
<!-- Generated by graphviz version 2.38.0 (20140413.2041)
 -->
<!-- Title: unix Pages: 1 -->
<svg xmlns="http://www.w3.org/2000/svg" xmlns:xlink="http://www.w3.org/1999/xlink" style="width:333;height:249;" width="333pt" height="249pt" viewBox="0 0 333 249">
<g id="graph0" class="graph" transform="scale(1 1) rotate(0) translate(4 245)">
<title>unix</title>
<polygon fill="#ffffff" stroke="none" points="-4,4 -4,-245 328.5,-245 328.5,4 -4,4"/>
<!-- cl32 -->
<g id="node1" class="node"><title>cl32</title>
<path fill="#f8f8f8" stroke="#383838" d="M12,-120.5C12,-120.5 99,-120.5 99,-120.5 105,-120.5 111,-126.5 111,-132.5 111,-132.5 111,-155.5 111,-155.5 111,-161.5 105,-167.5 99,-167.5 99,-167.5 12,-167.5 12,-167.5 6,-167.5 0,-161.5 0,-155.5 0,-155.5 0,-132.5 0,-132.5 0,-126.5 6,-120.5 12,-120.5"/>
<polygon fill="#f8f8f8" stroke="none" points="8,-144.5 8,-163.5 103,-163.5 103,-144.5 8,-144.5"/>
<text text-anchor="start" x="10.5" y="-149.8" font-family="Courier,monospace" font-size="14.00" fill="#000000">authnFailed</text>
<polyline fill="none" stroke="#383838" points="0,-140.5 111,-140.5 "/>
<text text-anchor="start" x="53.5" y="-127.7" font-family="Times,serif" font-size="11.00"> </text>
</g>
<!-- cl34 -->
<g id="node2" class="node"><title>cl34</title>
<path fill="#f8f8f8" stroke="#383838" d="M61,-0.5C61,-0.5 148,-0.5 148,-0.5 154,-0.5 160,-6.5 160,-12.5 160,-12.5 160,-35.5 160,-35.5 160,-41.5 154,-47.5 148,-47.5 148,-47.5 61,-47.5 61,-47.5 55,-47.5 49,-41.5 49,-35.5 49,-35.5 49,-12.5 49,-12.5 49,-6.5 55,-0.5 61,-0.5"/>
<polygon fill="#f8f8f8" stroke="none" points="57,-24.5 57,-43.5 152,-43.5 152,-24.5 57,-24.5"/>
<text text-anchor="start" x="59.5" y="-29.8" font-family="Courier,monospace" font-size="14.00" fill="#000000">idpSelected</text>
<polyline fill="none" stroke="#383838" points="49,-20.5 160,-20.5 "/>
<text text-anchor="start" x="102.5" y="-7.7" font-family="Times,serif" font-size="11.00"> </text>
</g>
<!-- cl32&#45;&gt;cl34 -->
<g id="edge1" class="edge"><title>cl32&#45;&gt;cl34</title>
<path fill="none" stroke="#383838" d="M21.631,-120.321C7.54045,-107.96 -3.64484,-92.1329 5.5,-77 13.5308,-63.7105 26.2069,-53.6493 39.8417,-46.0963"/>
<polygon fill="#383838" stroke="#383838" points="48.901,-41.4864 42.0294,-50.0323 44.4448,-43.754 39.9885,-46.0216 39.9885,-46.0216 39.9885,-46.0216 44.4448,-43.754 37.9477,-42.011 48.901,-41.4864 48.901,-41.4864"/>
<text text-anchor="start" x="5.5" y="-80.6" font-family="Courier,monospace" font-size="13.00" fill="#000000">selectIdp</text>
</g>
<!-- cl34&#45;&gt;cl32 -->
<g id="edge4" class="edge"><title>cl34&#45;&gt;cl32</title>
<path fill="none" stroke="#383838" d="M95.0813,-47.6817C87.6326,-65.6195 77.1399,-90.8875 68.8293,-110.901"/>
<polygon fill="#383838" stroke="#383838" points="64.9477,-120.248 64.6269,-109.287 66.8652,-115.631 68.7828,-111.013 68.7828,-111.013 68.7828,-111.013 66.8652,-115.631 72.9387,-112.739 64.9477,-120.248 64.9477,-120.248"/>
<text text-anchor="start" x="81.5" y="-80.6" font-family="Courier,monospace" font-size="13.00" fill="#000000">authenticationFailed</text>
</g>
<!-- cl37 -->
<g id="node3" class="node"><title>cl37</title>
<ellipse fill="#000000" stroke="#000000" cx="285.5" cy="-234" rx="7" ry="7"/>
</g>
<!-- cl39 -->
<g id="node4" class="node"><title>cl39</title>
<path fill="#f8f8f8" stroke="#383838" d="M258.5,-120.5C258.5,-120.5 312.5,-120.5 312.5,-120.5 318.5,-120.5 324.5,-126.5 324.5,-132.5 324.5,-132.5 324.5,-155.5 324.5,-155.5 324.5,-161.5 318.5,-167.5 312.5,-167.5 312.5,-167.5 258.5,-167.5 258.5,-167.5 252.5,-167.5 246.5,-161.5 246.5,-155.5 246.5,-155.5 246.5,-132.5 246.5,-132.5 246.5,-126.5 252.5,-120.5 258.5,-120.5"/>
<polygon fill="#f8f8f8" stroke="none" points="254.5,-144.5 254.5,-163.5 316.5,-163.5 316.5,-144.5 254.5,-144.5"/>
<text text-anchor="start" x="256.5" y="-149.8" font-family="Courier,monospace" font-size="14.00" fill="#000000">started</text>
<polyline fill="none" stroke="#383838" points="246.5,-140.5 324.5,-140.5 "/>
<text text-anchor="start" x="283.5" y="-127.7" font-family="Times,serif" font-size="11.00"> </text>
</g>
<!-- cl37&#45;&gt;cl39 -->
<g id="edge2" class="edge"><title>cl37&#45;&gt;cl39</title>
<path fill="none" stroke="#383838" d="M285.5,-226.951C285.5,-216.842 285.5,-195.823 285.5,-177.604"/>
<polygon fill="#383838" stroke="#383838" points="285.5,-167.582 290,-177.582 285.5,-172.582 285.5,-177.582 285.5,-177.582 285.5,-177.582 285.5,-172.582 281,-177.582 285.5,-167.582 285.5,-167.582"/>
</g>
<!-- cl39&#45;&gt;cl34 -->
<g id="edge3" class="edge"><title>cl39&#45;&gt;cl34</title>
<path fill="none" stroke="#383838" d="M273.788,-120.204C265.558,-106.114 253.379,-88.573 238.5,-77 218.332,-61.3124 192.86,-49.8552 169.554,-41.7539"/>
<polygon fill="#383838" stroke="#383838" points="160.063,-38.5943 170.973,-37.4836 164.807,-40.1737 169.551,-41.7532 169.551,-41.7532 169.551,-41.7532 164.807,-40.1737 168.13,-46.0228 160.063,-38.5943 160.063,-38.5943"/>
<text text-anchor="start" x="253.5" y="-80.6" font-family="Courier,monospace" font-size="13.00" fill="#000000">selectIdp</text>
</g>
</g>
</svg>
