<?xml version="1.0" encoding="UTF-8" standalone="no"?>
<!DOCTYPE svg PUBLIC "-//W3C//DTD SVG 1.1//EN"
 "http://www.w3.org/Graphics/SVG/1.1/DTD/svg11.dtd">
<!-- Generated by graphviz version 2.40.1 (20161225.0304)
 -->
<!-- Title: unix Pages: 1 -->
<svg xmlns="http://www.w3.org/2000/svg" xmlns:xlink="http://www.w3.org/1999/xlink" style="width:673;height:831;" width="673pt" height="831pt" viewBox="0 0 673 831">
<g id="graph0" class="graph" transform="scale(1 1) rotate(0) translate(4 827)">
<title>unix</title>
<polygon fill="#ffffff" stroke="transparent" points="-4,4 -4,-827 669,-827 669,4 -4,4"/>
<!-- cl32 -->
<g id="node1" class="node">
<title>cl32</title>
<path fill="#f8f8f8" stroke="#383838" d="M142.5,-704.5C142.5,-704.5 230.5,-704.5 230.5,-704.5 236.5,-704.5 242.5,-710.5 242.5,-716.5 242.5,-716.5 242.5,-737.5 242.5,-737.5 242.5,-743.5 236.5,-749.5 230.5,-749.5 230.5,-749.5 142.5,-749.5 142.5,-749.5 136.5,-749.5 130.5,-743.5 130.5,-737.5 130.5,-737.5 130.5,-716.5 130.5,-716.5 130.5,-710.5 136.5,-704.5 142.5,-704.5"/>
<polygon fill="#f8f8f8" stroke="transparent" points="138.5,-727.5 138.5,-745.5 234.5,-745.5 234.5,-727.5 138.5,-727.5"/>
<text text-anchor="start" x="140.2925" y="-732.3" font-family="Courier,monospace" font-size="14.00" fill="#000000">authnFailed</text>
<polyline fill="none" stroke="#383838" points="130.5,-723.5 242.5,-723.5 "/>
<text text-anchor="start" x="185.125" y="-710.7" font-family="Times,serif" font-size="11.00" fill="#000000"> </text>
</g>
<!-- cl34 -->
<g id="node2" class="node">
<title>cl34</title>
<path fill="#f8f8f8" stroke="#383838" d="M192.5,-587.5C192.5,-587.5 280.5,-587.5 280.5,-587.5 286.5,-587.5 292.5,-593.5 292.5,-599.5 292.5,-599.5 292.5,-620.5 292.5,-620.5 292.5,-626.5 286.5,-632.5 280.5,-632.5 280.5,-632.5 192.5,-632.5 192.5,-632.5 186.5,-632.5 180.5,-626.5 180.5,-620.5 180.5,-620.5 180.5,-599.5 180.5,-599.5 180.5,-593.5 186.5,-587.5 192.5,-587.5"/>
<polygon fill="#f8f8f8" stroke="transparent" points="188.5,-610.5 188.5,-628.5 284.5,-628.5 284.5,-610.5 188.5,-610.5"/>
<text text-anchor="start" x="190.2925" y="-615.3" font-family="Courier,monospace" font-size="14.00" fill="#000000">idpSelected</text>
<polyline fill="none" stroke="#383838" points="180.5,-606.5 292.5,-606.5 "/>
<text text-anchor="start" x="235.125" y="-593.7" font-family="Times,serif" font-size="11.00" fill="#000000"> </text>
</g>
<!-- cl32&#45;&gt;cl34 -->
<g id="edge1" class="edge">
<title>cl32&#45;&gt;cl34</title>
<path fill="none" stroke="#383838" d="M151.2392,-704.2148C137.1763,-692.1696 126.2308,-676.837 135.2886,-662 143.7277,-648.1765 157.1418,-637.8738 171.479,-630.2546"/>
<polygon fill="#383838" stroke="#383838" points="180.489,-625.8498 173.4815,-634.2846 175.997,-628.0459 171.5051,-630.2419 171.5051,-630.2419 171.5051,-630.2419 175.997,-628.0459 169.5286,-626.1991 180.489,-625.8498 180.489,-625.8498"/>
<text text-anchor="start" x="135.5" y="-664.6" font-family="Courier,monospace" font-size="13.00" fill="#000000">selectIdp</text>
</g>
<!-- cl34&#45;&gt;cl32 -->
<g id="edge3" class="edge">
<title>cl34&#45;&gt;cl32</title>
<path fill="none" stroke="#383838" d="M226.7185,-632.8887C219.1207,-650.6675 208.4959,-675.5296 200.0746,-695.2353"/>
<polygon fill="#383838" stroke="#383838" points="196.1405,-704.4412 195.9323,-693.4773 198.1054,-699.8435 200.0703,-695.2457 200.0703,-695.2457 200.0703,-695.2457 198.1054,-699.8435 204.2083,-697.0141 196.1405,-704.4412 196.1405,-704.4412"/>
<text text-anchor="start" x="213.5" y="-664.6" font-family="Courier,monospace" font-size="13.00" fill="#000000">authenticationFailed</text>
</g>
<!-- cl62 -->
<g id="node3" class="node">
<title>cl62</title>
<path fill="#f8f8f8" stroke="#383838" d="M12,-235.5C12,-235.5 117,-235.5 117,-235.5 123,-235.5 129,-241.5 129,-247.5 129,-247.5 129,-268.5 129,-268.5 129,-274.5 123,-280.5 117,-280.5 117,-280.5 12,-280.5 12,-280.5 6,-280.5 0,-274.5 0,-268.5 0,-268.5 0,-247.5 0,-247.5 0,-241.5 6,-235.5 12,-235.5"/>
<polygon fill="#f8f8f8" stroke="transparent" points="8,-258.5 8,-276.5 121,-276.5 121,-258.5 8,-258.5"/>
<text text-anchor="start" x="10.3911" y="-263.3" font-family="Courier,monospace" font-size="14.00" fill="#000000">fraudResponse</text>
<polyline fill="none" stroke="#383838" points="0,-254.5 129,-254.5 "/>
<text text-anchor="start" x="63.125" y="-241.7" font-family="Times,serif" font-size="11.00" fill="#000000"> </text>
</g>
<!-- cl34&#45;&gt;cl62 -->
<g id="edge4" class="edge">
<title>cl34&#45;&gt;cl62</title>
<path fill="none" stroke="#383838" d="M206.8454,-587.4882C185.8251,-570.0846 158.4496,-544.253 141.5,-516 97.385,-442.4654 76.9548,-341.8322 68.9182,-290.7003"/>
<polygon fill="#383838" stroke="#383838" points="67.3873,-280.5682 73.3308,-289.7836 68.1343,-285.5121 68.8813,-290.456 68.8813,-290.456 68.8813,-290.456 68.1343,-285.5121 64.4318,-291.1283 67.3873,-280.5682 67.3873,-280.5682"/>
<text text-anchor="start" x="173.5" y="-547.6" font-family="Courier,monospace" font-size="13.00" fill="#000000">fraudResponse</text>
</g>
<!-- cl71 -->
<g id="node6" class="node">
<title>cl71</title>
<path fill="#f8f8f8" stroke="#383838" d="M166,-.5C166,-.5 653,-.5 653,-.5 659,-.5 665,-6.5 665,-12.5 665,-12.5 665,-503.5 665,-503.5 665,-509.5 659,-515.5 653,-515.5 653,-515.5 166,-515.5 166,-515.5 160,-515.5 154,-509.5 154,-503.5 154,-503.5 154,-12.5 154,-12.5 154,-6.5 160,-.5 166,-.5"/>
<polygon fill="#f8f8f8" stroke="transparent" points="374,-493.5 374,-511.5 445,-511.5 445,-493.5 374,-493.5"/>
<text text-anchor="start" x="376.3945" y="-498.3" font-family="Courier,monospace" font-size="14.00" fill="#000000">matching</text>
<polyline fill="none" stroke="#383838" points="154,-489.5 665,-489.5 "/>
<polygon fill="#ffffff" stroke="transparent" points="162.5,-4 162.5,-485 657.5,-485 657.5,-4 162.5,-4"/>
<svg x="164.5" y="-483.0">
<g id="graph0" class="graph" transform="scale(1 1) rotate(0) translate(4 474)">
<title>unix</title>
<polygon fill="#ffffff" stroke="transparent" points="-4,4 -4,-474 487.5063,-474 487.5063,4 -4,4"/>
<!-- cl40 -->
<g id="node1" class="node">
<title>cl40</title>
<path fill="#f8f8f8" stroke="#383838" d="M139,-234.5C139,-234.5 286,-234.5 286,-234.5 292,-234.5 298,-240.5 298,-246.5 298,-246.5 298,-267.5 298,-267.5 298,-273.5 292,-279.5 286,-279.5 286,-279.5 139,-279.5 139,-279.5 133,-279.5 127,-273.5 127,-267.5 127,-267.5 127,-246.5 127,-246.5 127,-240.5 133,-234.5 139,-234.5"/>
<polygon fill="#f8f8f8" stroke="transparent" points="135,-257.5 135,-275.5 290,-275.5 290,-257.5 135,-257.5"/>
<text text-anchor="start" x="137.3877" y="-262.3" font-family="Courier,monospace" font-size="14.00" fill="#000000">awaitingCycle3Data</text>
<polyline fill="none" stroke="#383838" points="127,-253.5 298,-253.5 "/>
<text text-anchor="start" x="211.125" y="-240.7" font-family="Times,serif" font-size="11.00" fill="#000000"> </text>
</g>
<!-- cl42 -->
<g id="node2" class="node">
<title>cl42</title>
<path fill="#f8f8f8" stroke="#383838" d="M12,-.5C12,-.5 125,-.5 125,-.5 131,-.5 137,-6.5 137,-12.5 137,-12.5 137,-33.5 137,-33.5 137,-39.5 131,-45.5 125,-45.5 125,-45.5 12,-45.5 12,-45.5 6,-45.5 0,-39.5 0,-33.5 0,-33.5 0,-12.5 0,-12.5 0,-6.5 6,-.5 12,-.5"/>
<polygon fill="#f8f8f8" stroke="transparent" points="8,-23.5 8,-41.5 129,-41.5 129,-23.5 8,-23.5"/>
<text text-anchor="start" x="10.1904" y="-28.3" font-family="Courier,monospace" font-size="14.00" fill="#000000">matchingFailed</text>
<polyline fill="none" stroke="#383838" points="0,-19.5 137,-19.5 "/>
<text text-anchor="start" x="67.125" y="-6.7" font-family="Times,serif" font-size="11.00" fill="#000000"> </text>
</g>
<!-- cl40&#45;&gt;cl42 -->
<g id="edge1" class="edge">
<title>cl40&#45;&gt;cl42</title>
<path fill="none" stroke="#383838" d="M162.2435,-234.438C133.4544,-218.7249 99.5202,-194.857 81.2759,-163 62.4794,-130.1787 61.758,-85.7917 64.1162,-55.8687"/>
<polygon fill="#383838" stroke="#383838" points="65.0966,-45.5471 68.6308,-55.9278 64.6238,-50.5247 64.1509,-55.5023 64.1509,-55.5023 64.1509,-55.5023 64.6238,-50.5247 59.6711,-55.0767 65.0966,-45.5471 65.0966,-45.5471"/>
<text text-anchor="start" x="81.5" y="-136.1" font-family="Courier,monospace" font-size="13.00" fill="#000000">cancelCycle3Request</text>
</g>
<!-- cl45 -->
<g id="node3" class="node">
<title>cl45</title>
<path fill="#f8f8f8" stroke="#383838" d="M253.5,-117.5C253.5,-117.5 433.5,-117.5 433.5,-117.5 439.5,-117.5 445.5,-123.5 445.5,-129.5 445.5,-129.5 445.5,-150.5 445.5,-150.5 445.5,-156.5 439.5,-162.5 433.5,-162.5 433.5,-162.5 253.5,-162.5 253.5,-162.5 247.5,-162.5 241.5,-156.5 241.5,-150.5 241.5,-150.5 241.5,-129.5 241.5,-129.5 241.5,-123.5 247.5,-117.5 253.5,-117.5"/>
<polygon fill="#f8f8f8" stroke="transparent" points="249.5,-140.5 249.5,-158.5 437.5,-158.5 437.5,-140.5 249.5,-140.5"/>
<text text-anchor="start" x="251.085" y="-145.3" font-family="Courier,monospace" font-size="14.00" fill="#000000">cycle3MatchRequestSent</text>
<polyline fill="none" stroke="#383838" points="241.5,-136.5 445.5,-136.5 "/>
<text text-anchor="start" x="342.125" y="-123.7" font-family="Times,serif" font-size="11.00" fill="#000000"> </text>
</g>
<!-- cl40&#45;&gt;cl45 -->
<g id="edge2" class="edge">
<title>cl40&#45;&gt;cl45</title>
<path fill="none" stroke="#383838" d="M237.7581,-234.4412C258.3757,-216.0271 287.6784,-189.8559 310.2103,-169.732"/>
<polygon fill="#383838" stroke="#383838" points="317.8724,-162.8887 313.4116,-172.9063 314.1432,-166.2194 310.4141,-169.5501 310.4141,-169.5501 310.4141,-169.5501 314.1432,-166.2194 307.4165,-166.1938 317.8724,-162.8887 317.8724,-162.8887"/>
<text text-anchor="start" x="281.5" y="-194.6" font-family="Courier,monospace" font-size="13.00" fill="#000000">submitCycle3Request</text>
</g>
<!-- cl45&#45;&gt;cl42 -->
<g id="edge7" class="edge">
<title>cl45&#45;&gt;cl42</title>
<path fill="none" stroke="#383838" d="M290.4772,-117.4412C244.9708,-98.0803 179.3091,-70.1442 131.2042,-49.6778"/>
<polygon fill="#383838" stroke="#383838" points="121.8284,-45.6888 132.792,-45.463 126.4293,-47.6463 131.0302,-49.6038 131.0302,-49.6038 131.0302,-49.6038 126.4293,-47.6463 129.2685,-53.7446 121.8284,-45.6888 121.8284,-45.6888"/>
<text text-anchor="start" x="213.5" y="-77.6" font-family="Courier,monospace" font-size="13.00" fill="#000000">noMatch</text>
</g>
<!-- cl55 -->
<g id="node6" class="node">
<title>cl55</title>
<path fill="#f8f8f8" stroke="#383838" d="M414.5,-.5C414.5,-.5 452.5,-.5 452.5,-.5 458.5,-.5 464.5,-6.5 464.5,-12.5 464.5,-12.5 464.5,-33.5 464.5,-33.5 464.5,-39.5 458.5,-45.5 452.5,-45.5 452.5,-45.5 414.5,-45.5 414.5,-45.5 408.5,-45.5 402.5,-39.5 402.5,-33.5 402.5,-33.5 402.5,-12.5 402.5,-12.5 402.5,-6.5 408.5,-.5 414.5,-.5"/>
<polygon fill="#f8f8f8" stroke="transparent" points="410.5,-23.5 410.5,-41.5 456.5,-41.5 456.5,-23.5 410.5,-23.5"/>
<text text-anchor="start" x="412.4966" y="-28.3" font-family="Courier,monospace" font-size="14.00" fill="#000000">match</text>
<polyline fill="none" stroke="#383838" points="402.5,-19.5 464.5,-19.5 "/>
<text text-anchor="start" x="432.125" y="-6.7" font-family="Times,serif" font-size="11.00" fill="#000000"> </text>
</g>
<!-- cl45&#45;&gt;cl55 -->
<g id="edge8" class="edge">
<title>cl45&#45;&gt;cl55</title>
<path fill="none" stroke="#383838" d="M360.8529,-117.4412C374.7084,-99.4291 394.273,-73.9951 409.6087,-54.0587"/>
<polygon fill="#383838" stroke="#383838" points="415.8933,-45.8887 413.363,-56.5587 412.8447,-49.8519 409.7961,-53.815 409.7961,-53.815 409.7961,-53.815 412.8447,-49.8519 406.2293,-51.0713 415.8933,-45.8887 415.8933,-45.8887"/>
<text text-anchor="start" x="390.5" y="-77.6" font-family="Courier,monospace" font-size="13.00" fill="#000000">match</text>
</g>
<!-- cl48 -->
<g id="node4" class="node">
<title>cl48</title>
<ellipse fill="#000000" stroke="#000000" cx="212.5" cy="-463" rx="7" ry="7"/>
</g>
<!-- cl50 -->
<g id="node5" class="node">
<title>cl50</title>
<path fill="#f8f8f8" stroke="#383838" d="M105.5,-351.5C105.5,-351.5 319.5,-351.5 319.5,-351.5 325.5,-351.5 331.5,-357.5 331.5,-363.5 331.5,-363.5 331.5,-384.5 331.5,-384.5 331.5,-390.5 325.5,-396.5 319.5,-396.5 319.5,-396.5 105.5,-396.5 105.5,-396.5 99.5,-396.5 93.5,-390.5 93.5,-384.5 93.5,-384.5 93.5,-363.5 93.5,-363.5 93.5,-357.5 99.5,-351.5 105.5,-351.5"/>
<polygon fill="#f8f8f8" stroke="transparent" points="101.5,-374.5 101.5,-392.5 323.5,-392.5 323.5,-374.5 101.5,-374.5"/>
<text text-anchor="start" x="103.2822" y="-379.3" font-family="Courier,monospace" font-size="14.00" fill="#000000">cycle0And1MatchRequestSent</text>
<polyline fill="none" stroke="#383838" points="93.5,-370.5 331.5,-370.5 "/>
<text text-anchor="start" x="211.125" y="-357.7" font-family="Times,serif" font-size="11.00" fill="#000000"> </text>
</g>
<!-- cl48&#45;&gt;cl50 -->
<g id="edge3" class="edge">
<title>cl48&#45;&gt;cl50</title>
<path fill="none" stroke="#383838" d="M212.5,-455.7168C212.5,-445.0973 212.5,-424.6921 212.5,-406.9298"/>
<polygon fill="#383838" stroke="#383838" points="212.5,-396.8709 217.0001,-406.8709 212.5,-401.8709 212.5001,-406.8709 212.5001,-406.8709 212.5001,-406.8709 212.5,-401.8709 208.0001,-406.871 212.5,-396.8709 212.5,-396.8709"/>
</g>
<!-- cl50&#45;&gt;cl40 -->
<g id="edge5" class="edge">
<title>cl50&#45;&gt;cl40</title>
<path fill="none" stroke="#383838" d="M212.5,-351.4412C212.5,-333.992 212.5,-309.5775 212.5,-289.9434"/>
<polygon fill="#383838" stroke="#383838" points="212.5,-279.8887 217.0001,-289.8887 212.5,-284.8887 212.5001,-289.8887 212.5001,-289.8887 212.5001,-289.8887 212.5,-284.8887 208.0001,-289.8888 212.5,-279.8887 212.5,-279.8887"/>
<text text-anchor="start" x="212.5" y="-311.6" font-family="Courier,monospace" font-size="13.00" fill="#000000">awaitCycle3Data</text>
</g>
<!-- cl50&#45;&gt;cl42 -->
<g id="edge4" class="edge">
<title>cl50&#45;&gt;cl42</title>
<path fill="none" stroke="#383838" d="M176.7901,-351.4861C135.6648,-323.1479 70.485,-270.199 44.8911,-205 25.3331,-155.1769 41.6092,-92.3721 55.1123,-55.077"/>
<polygon fill="#383838" stroke="#383838" points="58.6383,-45.7173 59.324,-56.6617 56.8756,-50.3963 55.1129,-55.0753 55.1129,-55.0753 55.1129,-55.0753 56.8756,-50.3963 50.9018,-53.4889 58.6383,-45.7173 58.6383,-45.7173"/>
<text text-anchor="start" x="45.5" y="-194.6" font-family="Courier,monospace" font-size="13.00" fill="#000000">noMatch</text>
</g>
<!-- cl50&#45;&gt;cl55 -->
<g id="edge6" class="edge">
<title>cl50&#45;&gt;cl55</title>
<path fill="none" stroke="#383838" d="M281.5774,-351.3749C300.0268,-343.6204 319.3167,-333.8436 335.5,-322 390.7018,-281.6011 396.6434,-261.2981 435.5,-205 447.5891,-187.4845 453.2242,-183.6181 458.5,-163 463.5681,-143.1937 461.1497,-137.272 458.5,-117 455.7796,-96.1873 449.8073,-73.4253 444.3823,-55.5133"/>
<polygon fill="#383838" stroke="#383838" points="441.3647,-45.8422 448.6391,-54.0479 442.854,-50.6153 444.3434,-55.3883 444.3434,-55.3883 444.3434,-55.3883 442.854,-50.6153 440.0476,-56.7287 441.3647,-45.8422 441.3647,-45.8422"/>
<text text-anchor="start" x="444.5" y="-194.6" font-family="Courier,monospace" font-size="13.00" fill="#000000">match</text>
</g>
</g>

</svg>
</g>
<!-- cl34&#45;&gt;cl71 -->
<g id="edge2" class="edge">
<title>cl34&#45;&gt;cl71</title>
<path fill="none" stroke="#383838" d="M258.2195,-587.3226C265.8777,-578.5957 274.1522,-568.2571 280.5,-558 287.2164,-547.1473 293.7491,-535.8835 300.0784,-524.3647"/>
<polygon fill="#383838" stroke="#383838" points="304.8786,-515.5091 304.0693,-526.4451 302.4958,-519.9049 300.1131,-524.3007 300.1131,-524.3007 300.1131,-524.3007 302.4958,-519.9049 296.1569,-522.1562 304.8786,-515.5091 304.8786,-515.5091"/>
<text text-anchor="start" x="285.5" y="-547.6" font-family="Courier,monospace" font-size="13.00" fill="#000000">authenticationSucceeded</text>
</g>
<!-- cl65 -->
<g id="node4" class="node">
<title>cl65</title>
<ellipse fill="#000000" stroke="#000000" cx="422.5" cy="-816" rx="7" ry="7"/>
</g>
<!-- cl67 -->
<g id="node5" class="node">
<title>cl67</title>
<path fill="#f8f8f8" stroke="#383838" d="M395.5,-704.5C395.5,-704.5 449.5,-704.5 449.5,-704.5 455.5,-704.5 461.5,-710.5 461.5,-716.5 461.5,-716.5 461.5,-737.5 461.5,-737.5 461.5,-743.5 455.5,-749.5 449.5,-749.5 449.5,-749.5 395.5,-749.5 395.5,-749.5 389.5,-749.5 383.5,-743.5 383.5,-737.5 383.5,-737.5 383.5,-716.5 383.5,-716.5 383.5,-710.5 389.5,-704.5 395.5,-704.5"/>
<polygon fill="#f8f8f8" stroke="transparent" points="391.5,-727.5 391.5,-745.5 453.5,-745.5 453.5,-727.5 391.5,-727.5"/>
<text text-anchor="start" x="393.0952" y="-732.3" font-family="Courier,monospace" font-size="14.00" fill="#000000">started</text>
<polyline fill="none" stroke="#383838" points="383.5,-723.5 461.5,-723.5 "/>
<text text-anchor="start" x="421.125" y="-710.7" font-family="Times,serif" font-size="11.00" fill="#000000"> </text>
</g>
<!-- cl65&#45;&gt;cl67 -->
<g id="edge5" class="edge">
<title>cl65&#45;&gt;cl67</title>
<path fill="none" stroke="#383838" d="M422.5,-808.7168C422.5,-798.0973 422.5,-777.6921 422.5,-759.9298"/>
<polygon fill="#383838" stroke="#383838" points="422.5,-749.8709 427.0001,-759.8709 422.5,-754.8709 422.5001,-759.8709 422.5001,-759.8709 422.5001,-759.8709 422.5,-754.8709 418.0001,-759.871 422.5,-749.8709 422.5,-749.8709"/>
</g>
<!-- cl67&#45;&gt;cl34 -->
<g id="edge6" class="edge">
<title>cl67&#45;&gt;cl34</title>
<path fill="none" stroke="#383838" d="M410.7621,-704.4917C402.5216,-690.5922 390.3399,-673.3134 375.5,-662 354.0647,-645.6585 326.9365,-633.9893 302.3477,-625.9025"/>
<polygon fill="#383838" stroke="#383838" points="292.7091,-622.869 303.5989,-621.5788 297.4785,-624.3701 302.2479,-625.8712 302.2479,-625.8712 302.2479,-625.8712 297.4785,-624.3701 300.8969,-630.1636 292.7091,-622.869 292.7091,-622.869"/>
<text text-anchor="start" x="387.5" y="-664.6" font-family="Courier,monospace" font-size="13.00" fill="#000000">selectIdp</text>
</g>
</g>
</svg>
