<?xml version="1.0" encoding="UTF-8" standalone="no"?>
<!DOCTYPE svg PUBLIC "-//W3C//DTD SVG 1.1//EN"
 "http://www.w3.org/Graphics/SVG/1.1/DTD/svg11.dtd">
<!-- Generated by graphviz version 2.40.1 (20161225.0304)
 -->
<!-- Title: unix Pages: 1 -->
<svg xmlns="http://www.w3.org/2000/svg" xmlns:xlink="http://www.w3.org/1999/xlink" style="width:460;height:714;" width="460pt" height="714pt" viewBox="0 0 460 714">
<g id="graph0" class="graph" transform="scale(1 1) rotate(0) translate(4 710)">
<title>unix</title>
<polygon fill="#ffffff" stroke="transparent" points="-4,4 -4,-710 455.9292,-710 455.9292,4 -4,4"/>
<!-- cl16 -->
<g id="node1" class="node">
<title>cl16</title>
<path fill="#f8f8f8" stroke="#383838" d="M88.5,-587.5C88.5,-587.5 176.5,-587.5 176.5,-587.5 182.5,-587.5 188.5,-593.5 188.5,-599.5 188.5,-599.5 188.5,-620.5 188.5,-620.5 188.5,-626.5 182.5,-632.5 176.5,-632.5 176.5,-632.5 88.5,-632.5 88.5,-632.5 82.5,-632.5 76.5,-626.5 76.5,-620.5 76.5,-620.5 76.5,-599.5 76.5,-599.5 76.5,-593.5 82.5,-587.5 88.5,-587.5"/>
<polygon fill="#f8f8f8" stroke="transparent" points="84.5,-610.5 84.5,-628.5 180.5,-628.5 180.5,-610.5 84.5,-610.5"/>
<text text-anchor="start" x="86.2925" y="-615.3" font-family="Courier,monospace" font-size="14.00" fill="#000000">authnFailed</text>
<polyline fill="none" stroke="#383838" points="76.5,-606.5 188.5,-606.5 "/>
<text text-anchor="start" x="131.125" y="-593.7" font-family="Times,serif" font-size="11.00" fill="#000000"> </text>
</g>
<!-- cl18 -->
<g id="node2" class="node">
<title>cl18</title>
<path fill="#f8f8f8" stroke="#383838" d="M138.5,-470.5C138.5,-470.5 226.5,-470.5 226.5,-470.5 232.5,-470.5 238.5,-476.5 238.5,-482.5 238.5,-482.5 238.5,-503.5 238.5,-503.5 238.5,-509.5 232.5,-515.5 226.5,-515.5 226.5,-515.5 138.5,-515.5 138.5,-515.5 132.5,-515.5 126.5,-509.5 126.5,-503.5 126.5,-503.5 126.5,-482.5 126.5,-482.5 126.5,-476.5 132.5,-470.5 138.5,-470.5"/>
<polygon fill="#f8f8f8" stroke="transparent" points="134.5,-493.5 134.5,-511.5 230.5,-511.5 230.5,-493.5 134.5,-493.5"/>
<text text-anchor="start" x="136.2925" y="-498.3" font-family="Courier,monospace" font-size="14.00" fill="#000000">idpSelected</text>
<polyline fill="none" stroke="#383838" points="126.5,-489.5 238.5,-489.5 "/>
<text text-anchor="start" x="181.125" y="-476.7" font-family="Times,serif" font-size="11.00" fill="#000000"> </text>
</g>
<!-- cl16&#45;&gt;cl18 -->
<g id="edge1" class="edge">
<title>cl16&#45;&gt;cl18</title>
<path fill="none" stroke="#383838" d="M97.2392,-587.2148C83.1763,-575.1696 72.2308,-559.837 81.2886,-545 89.7277,-531.1765 103.1418,-520.8738 117.479,-513.2546"/>
<polygon fill="#383838" stroke="#383838" points="126.489,-508.8498 119.4815,-517.2846 121.997,-511.0459 117.5051,-513.2419 117.5051,-513.2419 117.5051,-513.2419 121.997,-511.0459 115.5286,-509.1991 126.489,-508.8498 126.489,-508.8498"/>
<text text-anchor="start" x="81.5" y="-547.6" font-family="Courier,monospace" font-size="13.00" fill="#000000">selectIdp</text>
</g>
<!-- cl18&#45;&gt;cl16 -->
<g id="edge3" class="edge">
<title>cl18&#45;&gt;cl16</title>
<path fill="none" stroke="#383838" d="M172.7185,-515.8887C165.1207,-533.6675 154.4959,-558.5296 146.0746,-578.2353"/>
<polygon fill="#383838" stroke="#383838" points="142.1405,-587.4412 141.9323,-576.4773 144.1054,-582.8435 146.0703,-578.2457 146.0703,-578.2457 146.0703,-578.2457 144.1054,-582.8435 150.2083,-580.0141 142.1405,-587.4412 142.1405,-587.4412"/>
<text text-anchor="start" x="159.5" y="-547.6" font-family="Courier,monospace" font-size="13.00" fill="#000000">authenticationFailed</text>
</g>
<!-- cl23 -->
<g id="node3" class="node">
<title>cl23</title>
<path fill="#f8f8f8" stroke="#383838" d="M12,-177C12,-177 117,-177 117,-177 123,-177 129,-183 129,-189 129,-189 129,-210 129,-210 129,-216 123,-222 117,-222 117,-222 12,-222 12,-222 6,-222 0,-216 0,-210 0,-210 0,-189 0,-189 0,-183 6,-177 12,-177"/>
<polygon fill="#f8f8f8" stroke="transparent" points="8,-200 8,-218 121,-218 121,-200 8,-200"/>
<text text-anchor="start" x="10.3911" y="-204.8" font-family="Courier,monospace" font-size="14.00" fill="#000000">fraudResponse</text>
<polyline fill="none" stroke="#383838" points="0,-196 129,-196 "/>
<text text-anchor="start" x="63.125" y="-183.2" font-family="Times,serif" font-size="11.00" fill="#000000"> </text>
</g>
<!-- cl18&#45;&gt;cl23 -->
<g id="edge4" class="edge">
<title>cl18&#45;&gt;cl23</title>
<path fill="none" stroke="#383838" d="M172.2832,-470.3229C163.8166,-451.3558 151.5814,-423.5381 141.5,-399 117.3732,-340.2752 91.1206,-270.9852 76.3482,-231.4494"/>
<polygon fill="#383838" stroke="#383838" points="72.8481,-222.0635 80.5586,-229.8609 74.5952,-226.7484 76.3422,-231.4332 76.3422,-231.4332 76.3422,-231.4332 74.5952,-226.7484 72.1258,-233.0056 72.8481,-222.0635 72.8481,-222.0635"/>
<text text-anchor="start" x="159.5" y="-430.6" font-family="Courier,monospace" font-size="13.00" fill="#000000">fraudResponse</text>
</g>
<!-- cl32 -->
<g id="node6" class="node">
<title>cl32</title>
<path fill="#f8f8f8" stroke="#383838" d="M166,-.5C166,-.5 437,-.5 437,-.5 443,-.5 449,-6.5 449,-12.5 449,-12.5 449,-386.5 449,-386.5 449,-392.5 443,-398.5 437,-398.5 437,-398.5 166,-398.5 166,-398.5 160,-398.5 154,-392.5 154,-386.5 154,-386.5 154,-12.5 154,-12.5 154,-6.5 160,-.5 166,-.5"/>
<polygon fill="#f8f8f8" stroke="transparent" points="266,-376.5 266,-394.5 337,-394.5 337,-376.5 266,-376.5"/>
<text text-anchor="start" x="268.3945" y="-381.3" font-family="Courier,monospace" font-size="14.00" fill="#000000">matching</text>
<polyline fill="none" stroke="#383838" points="154,-372.5 449,-372.5 "/>
<polygon fill="#ffffff" stroke="transparent" points="162.5,-4.5 162.5,-368.5 441.5,-368.5 441.5,-4.5 162.5,-4.5"/>
<svg x="164.5" y="-366.5">
<g id="graph0" class="graph" transform="scale(1 1) rotate(0) translate(4 357)">
<title>unix</title>
<polygon fill="#ffffff" stroke="transparent" points="-4,4 -4,-357 271.2241,-357 271.2241,4 -4,4"/>
<!-- cl5 -->
<g id="node1" class="node">
<title>cl5</title>
<ellipse fill="#000000" stroke="#000000" cx="119" cy="-346" rx="7" ry="7"/>
</g>
<!-- cl7 -->
<g id="node2" class="node">
<title>cl7</title>
<path fill="#f8f8f8" stroke="#383838" d="M12,-234.5C12,-234.5 226,-234.5 226,-234.5 232,-234.5 238,-240.5 238,-246.5 238,-246.5 238,-267.5 238,-267.5 238,-273.5 232,-279.5 226,-279.5 226,-279.5 12,-279.5 12,-279.5 6,-279.5 0,-273.5 0,-267.5 0,-267.5 0,-246.5 0,-246.5 0,-240.5 6,-234.5 12,-234.5"/>
<polygon fill="#f8f8f8" stroke="transparent" points="8,-257.5 8,-275.5 230,-275.5 230,-257.5 8,-257.5"/>
<text text-anchor="start" x="9.7822" y="-262.3" font-family="Courier,monospace" font-size="14.00" fill="#000000">cycle0And1MatchRequestSent</text>
<polyline fill="none" stroke="#383838" points="0,-253.5 238,-253.5 "/>
<text text-anchor="start" x="117.625" y="-240.7" font-family="Times,serif" font-size="11.00" fill="#000000"> </text>
</g>
<!-- cl5&#45;&gt;cl7 -->
<g id="edge1" class="edge">
<title>cl5&#45;&gt;cl7</title>
<path fill="none" stroke="#383838" d="M119,-338.7168C119,-328.0973 119,-307.6921 119,-289.9298"/>
<polygon fill="#383838" stroke="#383838" points="119,-279.8709 123.5001,-289.8709 119,-284.8709 119.0001,-289.8709 119.0001,-289.8709 119.0001,-289.8709 119,-284.8709 114.5001,-289.871 119,-279.8709 119,-279.8709"/>
</g>
<!-- cl10 -->
<g id="node3" class="node">
<title>cl10</title>
<path fill="#f8f8f8" stroke="#383838" d="M45.5,-117.5C45.5,-117.5 192.5,-117.5 192.5,-117.5 198.5,-117.5 204.5,-123.5 204.5,-129.5 204.5,-129.5 204.5,-150.5 204.5,-150.5 204.5,-156.5 198.5,-162.5 192.5,-162.5 192.5,-162.5 45.5,-162.5 45.5,-162.5 39.5,-162.5 33.5,-156.5 33.5,-150.5 33.5,-150.5 33.5,-129.5 33.5,-129.5 33.5,-123.5 39.5,-117.5 45.5,-117.5"/>
<polygon fill="#f8f8f8" stroke="transparent" points="41.5,-140.5 41.5,-158.5 196.5,-158.5 196.5,-140.5 41.5,-140.5"/>
<text text-anchor="start" x="43.8877" y="-145.3" font-family="Courier,monospace" font-size="14.00" fill="#000000">awaitingCycle3Data</text>
<polyline fill="none" stroke="#383838" points="33.5,-136.5 204.5,-136.5 "/>
<text text-anchor="start" x="117.625" y="-123.7" font-family="Times,serif" font-size="11.00" fill="#000000"> </text>
</g>
<!-- cl7&#45;&gt;cl10 -->
<g id="edge2" class="edge">
<title>cl7&#45;&gt;cl10</title>
<path fill="none" stroke="#383838" d="M119,-234.4412C119,-216.992 119,-192.5775 119,-172.9434"/>
<polygon fill="#383838" stroke="#383838" points="119,-162.8887 123.5001,-172.8887 119,-167.8887 119.0001,-172.8887 119.0001,-172.8887 119.0001,-172.8887 119,-167.8887 114.5001,-172.8888 119,-162.8887 119,-162.8887"/>
<text text-anchor="start" x="119" y="-194.6" font-family="Courier,monospace" font-size="13.00" fill="#000000">awaitCycle3Data</text>
</g>
<!-- cl13 -->
<g id="node4" class="node">
<title>cl13</title>
<path fill="#f8f8f8" stroke="#383838" d="M29,-.5C29,-.5 209,-.5 209,-.5 215,-.5 221,-6.5 221,-12.5 221,-12.5 221,-33.5 221,-33.5 221,-39.5 215,-45.5 209,-45.5 209,-45.5 29,-45.5 29,-45.5 23,-45.5 17,-39.5 17,-33.5 17,-33.5 17,-12.5 17,-12.5 17,-6.5 23,-.5 29,-.5"/>
<polygon fill="#f8f8f8" stroke="transparent" points="25,-23.5 25,-41.5 213,-41.5 213,-23.5 25,-23.5"/>
<text text-anchor="start" x="26.585" y="-28.3" font-family="Courier,monospace" font-size="14.00" fill="#000000">cycle3MatchRequestSent</text>
<polyline fill="none" stroke="#383838" points="17,-19.5 221,-19.5 "/>
<text text-anchor="start" x="117.625" y="-6.7" font-family="Times,serif" font-size="11.00" fill="#000000"> </text>
</g>
<!-- cl10&#45;&gt;cl13 -->
<g id="edge3" class="edge">
<title>cl10&#45;&gt;cl13</title>
<path fill="none" stroke="#383838" d="M119,-117.4412C119,-99.992 119,-75.5775 119,-55.9434"/>
<polygon fill="#383838" stroke="#383838" points="119,-45.8887 123.5001,-55.8887 119,-50.8887 119.0001,-55.8887 119.0001,-55.8887 119.0001,-55.8887 119,-50.8887 114.5001,-55.8888 119,-45.8887 119,-45.8887"/>
<text text-anchor="start" x="119" y="-77.6" font-family="Courier,monospace" font-size="13.00" fill="#000000">submitCycle3Request</text>
</g>
</g>

</svg>
</g>
<!-- cl18&#45;&gt;cl32 -->
<g id="edge2" class="edge">
<title>cl18&#45;&gt;cl32</title>
<path fill="none" stroke="#383838" d="M234.6074,-470.4398C246.8431,-462.7902 258.602,-453.0495 266.5,-441 273.2804,-430.6555 278.9696,-419.5295 283.7281,-407.9348"/>
<polygon fill="#383838" stroke="#383838" points="287.3479,-398.5416 287.951,-409.4908 285.5499,-403.2071 283.752,-407.8727 283.752,-407.8727 283.752,-407.8727 285.5499,-403.2071 279.553,-406.2545 287.3479,-398.5416 287.3479,-398.5416"/>
<text text-anchor="start" x="272.5" y="-430.6" font-family="Courier,monospace" font-size="13.00" fill="#000000">authenticationSucceeded</text>
</g>
<!-- cl26 -->
<g id="node4" class="node">
<title>cl26</title>
<ellipse fill="#000000" stroke="#000000" cx="368.5" cy="-699" rx="7" ry="7"/>
</g>
<!-- cl28 -->
<g id="node5" class="node">
<title>cl28</title>
<path fill="#f8f8f8" stroke="#383838" d="M341.5,-587.5C341.5,-587.5 395.5,-587.5 395.5,-587.5 401.5,-587.5 407.5,-593.5 407.5,-599.5 407.5,-599.5 407.5,-620.5 407.5,-620.5 407.5,-626.5 401.5,-632.5 395.5,-632.5 395.5,-632.5 341.5,-632.5 341.5,-632.5 335.5,-632.5 329.5,-626.5 329.5,-620.5 329.5,-620.5 329.5,-599.5 329.5,-599.5 329.5,-593.5 335.5,-587.5 341.5,-587.5"/>
<polygon fill="#f8f8f8" stroke="transparent" points="337.5,-610.5 337.5,-628.5 399.5,-628.5 399.5,-610.5 337.5,-610.5"/>
<text text-anchor="start" x="339.0952" y="-615.3" font-family="Courier,monospace" font-size="14.00" fill="#000000">started</text>
<polyline fill="none" stroke="#383838" points="329.5,-606.5 407.5,-606.5 "/>
<text text-anchor="start" x="367.125" y="-593.7" font-family="Times,serif" font-size="11.00" fill="#000000"> </text>
</g>
<!-- cl26&#45;&gt;cl28 -->
<g id="edge5" class="edge">
<title>cl26&#45;&gt;cl28</title>
<path fill="none" stroke="#383838" d="M368.5,-691.7168C368.5,-681.0973 368.5,-660.6921 368.5,-642.9298"/>
<polygon fill="#383838" stroke="#383838" points="368.5,-632.8709 373.0001,-642.8709 368.5,-637.8709 368.5001,-642.8709 368.5001,-642.8709 368.5001,-642.8709 368.5,-637.8709 364.0001,-642.871 368.5,-632.8709 368.5,-632.8709"/>
</g>
<!-- cl28&#45;&gt;cl18 -->
<g id="edge6" class="edge">
<title>cl28&#45;&gt;cl18</title>
<path fill="none" stroke="#383838" d="M356.7621,-587.4917C348.5216,-573.5922 336.3399,-556.3134 321.5,-545 300.0647,-528.6585 272.9365,-516.9893 248.3477,-508.9025"/>
<polygon fill="#383838" stroke="#383838" points="238.7091,-505.869 249.5989,-504.5788 243.4785,-507.3701 248.2479,-508.8712 248.2479,-508.8712 248.2479,-508.8712 243.4785,-507.3701 246.8969,-513.1636 238.7091,-505.869 238.7091,-505.869"/>
<text text-anchor="start" x="333.5" y="-547.6" font-family="Courier,monospace" font-size="13.00" fill="#000000">selectIdp</text>
</g>
</g>
</svg>
