<?xml version="1.0" encoding="UTF-8" standalone="no"?>
<!DOCTYPE svg PUBLIC "-//W3C//DTD SVG 1.1//EN"
 "http://www.w3.org/Graphics/SVG/1.1/DTD/svg11.dtd">
<!-- Generated by graphviz version 2.38.0 (20140413.2041)
 -->
<!-- Title: unix Pages: 1 -->
<svg xmlns="http://www.w3.org/2000/svg" xmlns:xlink="http://www.w3.org/1999/xlink" style="width:223;height:249;" width="223pt" height="249pt" viewBox="0 0 223 249">
<g id="graph0" class="graph" transform="scale(1 1) rotate(0) translate(4 245)">
<title>unix</title>
<polygon fill="#ffffff" stroke="none" points="-4,4 -4,-245 218.5,-245 218.5,4 -4,4"/>
<!-- cl32 -->
<g id="node1" class="node"><title>cl32</title>
<path fill="#f8f8f8" stroke="#383838" d="M12,-120.5C12,-120.5 99,-120.5 99,-120.5 105,-120.5 111,-126.5 111,-132.5 111,-132.5 111,-155.5 111,-155.5 111,-161.5 105,-167.5 99,-167.5 99,-167.5 12,-167.5 12,-167.5 6,-167.5 0,-161.5 0,-155.5 0,-155.5 0,-132.5 0,-132.5 0,-126.5 6,-120.5 12,-120.5"/>
<polygon fill="#f8f8f8" stroke="none" points="8,-144.5 8,-163.5 103,-163.5 103,-144.5 8,-144.5"/>
<text text-anchor="start" x="10.5" y="-149.8" font-family="Courier,monospace" font-size="14.00" fill="#000000">authnFailed</text>
<polyline fill="none" stroke="#383838" points="0,-140.5 111,-140.5 "/>
<text text-anchor="start" x="53.5" y="-127.7" font-family="Times,serif" font-size="11.00"> </text>
</g>
<!-- cl34 -->
<g id="node2" class="node"><title>cl34</title>
<path fill="#f8f8f8" stroke="#383838" d="M66,-0.5C66,-0.5 153,-0.5 153,-0.5 159,-0.5 165,-6.5 165,-12.5 165,-12.5 165,-35.5 165,-35.5 165,-41.5 159,-47.5 153,-47.5 153,-47.5 66,-47.5 66,-47.5 60,-47.5 54,-41.5 54,-35.5 54,-35.5 54,-12.5 54,-12.5 54,-6.5 60,-0.5 66,-0.5"/>
<polygon fill="#f8f8f8" stroke="none" points="62,-24.5 62,-43.5 157,-43.5 157,-24.5 62,-24.5"/>
<text text-anchor="start" x="64.5" y="-29.8" font-family="Courier,monospace" font-size="14.00" fill="#000000">idpSelected</text>
<polyline fill="none" stroke="#383838" points="54,-20.5 165,-20.5 "/>
<text text-anchor="start" x="107.5" y="-7.7" font-family="Times,serif" font-size="11.00"> </text>
</g>
<!-- cl32&#45;&gt;cl34 -->
<g id="edge1" class="edge"><title>cl32&#45;&gt;cl34</title>
<path fill="none" stroke="#383838" d="M55.877,-120.437C56.827,-107.264 59.3179,-90.6119 65.5,-77 68.9041,-69.5048 73.7101,-62.241 78.904,-55.6369"/>
<polygon fill="#383838" stroke="#383838" points="85.6141,-47.6568 82.6225,-58.2068 82.3962,-51.4838 79.1783,-55.3107 79.1783,-55.3107 79.1783,-55.3107 82.3962,-51.4838 75.7341,-52.4146 85.6141,-47.6568 85.6141,-47.6568"/>
<text text-anchor="start" x="65.5" y="-80.6" font-family="Courier,monospace" font-size="13.00" fill="#000000">selectIdp</text>
</g>
<!-- cl37 -->
<g id="node3" class="node"><title>cl37</title>
<ellipse fill="#000000" stroke="#000000" cx="175.5" cy="-234" rx="7" ry="7"/>
</g>
<!-- cl39 -->
<g id="node4" class="node"><title>cl39</title>
<path fill="#f8f8f8" stroke="#383838" d="M148.5,-120.5C148.5,-120.5 202.5,-120.5 202.5,-120.5 208.5,-120.5 214.5,-126.5 214.5,-132.5 214.5,-132.5 214.5,-155.5 214.5,-155.5 214.5,-161.5 208.5,-167.5 202.5,-167.5 202.5,-167.5 148.5,-167.5 148.5,-167.5 142.5,-167.5 136.5,-161.5 136.5,-155.5 136.5,-155.5 136.5,-132.5 136.5,-132.5 136.5,-126.5 142.5,-120.5 148.5,-120.5"/>
<polygon fill="#f8f8f8" stroke="none" points="144.5,-144.5 144.5,-163.5 206.5,-163.5 206.5,-144.5 144.5,-144.5"/>
<text text-anchor="start" x="146.5" y="-149.8" font-family="Courier,monospace" font-size="14.00" fill="#000000">started</text>
<polyline fill="none" stroke="#383838" points="136.5,-140.5 214.5,-140.5 "/>
<text text-anchor="start" x="173.5" y="-127.7" font-family="Times,serif" font-size="11.00"> </text>
</g>
<!-- cl37&#45;&gt;cl39 -->
<g id="edge2" class="edge"><title>cl37&#45;&gt;cl39</title>
<path fill="none" stroke="#383838" d="M175.5,-226.951C175.5,-216.842 175.5,-195.823 175.5,-177.604"/>
<polygon fill="#383838" stroke="#383838" points="175.5,-167.582 180,-177.582 175.5,-172.582 175.5,-177.582 175.5,-177.582 175.5,-177.582 175.5,-172.582 171,-177.582 175.5,-167.582 175.5,-167.582"/>
</g>
<!-- cl39&#45;&gt;cl34 -->
<g id="edge3" class="edge"><title>cl39&#45;&gt;cl34</title>
<path fill="none" stroke="#383838" d="M162.775,-120.248C152.64,-102.128 138.339,-76.5609 127.106,-56.4771"/>
<polygon fill="#383838" stroke="#383838" points="122.186,-47.6817 130.995,-54.2126 124.627,-52.0455 127.068,-56.4093 127.068,-56.4093 127.068,-56.4093 124.627,-52.0455 123.141,-58.606 122.186,-47.6817 122.186,-47.6817"/>
<text text-anchor="start" x="144.5" y="-80.6" font-family="Courier,monospace" font-size="13.00" fill="#000000">selectIdp</text>
</g>
</g>
</svg>
