<?xml version="1.0" encoding="UTF-8" standalone="no"?>
<!DOCTYPE svg PUBLIC "-//W3C//DTD SVG 1.1//EN"
 "http://www.w3.org/Graphics/SVG/1.1/DTD/svg11.dtd">
<!-- Generated by graphviz version 2.40.1 (20161225.0304)
 -->
<!-- Title: unix Pages: 1 -->
<svg xmlns="http://www.w3.org/2000/svg" xmlns:xlink="http://www.w3.org/1999/xlink" style="width:813;height:2752;" width="813pt" height="2752pt" viewBox="0 0 813 2752">
<g id="graph0" class="graph" transform="scale(1 1) rotate(0) translate(4 2748)">
<title>unix</title>
<polygon fill="#ffffff" stroke="transparent" points="-4,4 -4,-2748 808.5,-2748 808.5,4 -4,4"/>
<g id="clust1" class="cluster">
<title>cluster20a</title>
</g>
<g id="clust2" class="cluster">
<title>cluster20v</title>
<path fill="#ffffff" stroke="#383838" d="M28,-104C28,-104 509,-104 509,-104 515,-104 521,-110 521,-116 521,-116 521,-2438 521,-2438 521,-2444 515,-2450 509,-2450 509,-2450 28,-2450 28,-2450 22,-2450 16,-2444 16,-2438 16,-2438 16,-116 16,-116 16,-110 22,-104 28,-104"/>
<text text-anchor="start" x="234.8945" y="-2434.8" font-family="Courier,monospace" font-size="14.00" fill="#000000">matching</text>
</g>
<g id="clust3" class="cluster">
<title>cluster20i</title>
</g>
<!-- cluster20_LNK45 -->
<!-- cl43 -->
<g id="node15" class="node">
<title>cl43</title>
<path fill="#f8f8f8" stroke="#383838" d="M549.5,-2265.5C549.5,-2265.5 662.5,-2265.5 662.5,-2265.5 668.5,-2265.5 674.5,-2271.5 674.5,-2277.5 674.5,-2277.5 674.5,-2298.5 674.5,-2298.5 674.5,-2304.5 668.5,-2310.5 662.5,-2310.5 662.5,-2310.5 549.5,-2310.5 549.5,-2310.5 543.5,-2310.5 537.5,-2304.5 537.5,-2298.5 537.5,-2298.5 537.5,-2277.5 537.5,-2277.5 537.5,-2271.5 543.5,-2265.5 549.5,-2265.5"/>
<polygon fill="#f8f8f8" stroke="transparent" points="545.5,-2288.5 545.5,-2306.5 666.5,-2306.5 666.5,-2288.5 545.5,-2288.5"/>
<text text-anchor="start" x="547.6904" y="-2293.3" font-family="Courier,monospace" font-size="14.00" fill="#000000">matchingFailed</text>
<polyline fill="none" stroke="#383838" points="537.5,-2284.5 674.5,-2284.5 "/>
<text text-anchor="start" x="604.625" y="-2271.7" font-family="Times,serif" font-size="11.00" fill="#000000"> </text>
</g>
<!-- cluster20_LNK45&#45;&gt;cl43 -->
<g id="edge15" class="edge">
<title>cluster20_LNK45&#45;&gt;cl43</title>
<path fill="none" stroke="#383838" d="M520.9996,-2389.8799C522.5706,-2387.1995 524.2704,-2384.4758 526,-2382 541.6445,-2359.6057 561.5452,-2336.2059 577.5842,-2318.3549"/>
<polygon fill="#383838" stroke="#383838" points="584.6525,-2310.5671 581.2639,-2320.9963 581.2921,-2314.2696 577.9317,-2317.972 577.9317,-2317.972 577.9317,-2317.972 581.2921,-2314.2696 574.5995,-2314.9476 584.6525,-2310.5671 584.6525,-2310.5671"/>
<text text-anchor="start" x="557" y="-2342.6" font-family="Courier,monospace" font-size="13.00" fill="#000000">noMatch</text>
</g>
<!-- cluster20_LNK15 -->
<!-- cl21 -->
<g id="node3" class="node">
<title>cl21</title>
<ellipse fill="#000000" stroke="#000000" cx="349" cy="-2405" rx="7" ry="7"/>
</g>
<!-- cl23 -->
<g id="node4" class="node">
<title>cl23</title>
<path fill="#f8f8f8" stroke="#383838" d="M242,-1800.5C242,-1800.5 456,-1800.5 456,-1800.5 462,-1800.5 468,-1806.5 468,-1812.5 468,-1812.5 468,-1833.5 468,-1833.5 468,-1839.5 462,-1845.5 456,-1845.5 456,-1845.5 242,-1845.5 242,-1845.5 236,-1845.5 230,-1839.5 230,-1833.5 230,-1833.5 230,-1812.5 230,-1812.5 230,-1806.5 236,-1800.5 242,-1800.5"/>
<polygon fill="#f8f8f8" stroke="transparent" points="238,-1823.5 238,-1841.5 460,-1841.5 460,-1823.5 238,-1823.5"/>
<text text-anchor="start" x="239.7822" y="-1828.3" font-family="Courier,monospace" font-size="14.00" fill="#000000">cycle0And1MatchRequestSent</text>
<polyline fill="none" stroke="#383838" points="230,-1819.5 468,-1819.5 "/>
<text text-anchor="start" x="347.625" y="-1806.7" font-family="Times,serif" font-size="11.00" fill="#000000"> </text>
</g>
<!-- cl21&#45;&gt;cl23 -->
<g id="edge7" class="edge">
<title>cl21&#45;&gt;cl23</title>
<path fill="none" stroke="#383838" d="M349,-2397.8775C349,-2379.6175 349,-2329.6406 349,-2288 349,-2288 349,-2288 349,-1905.5 349,-1889.2491 349,-1871.1975 349,-1856.1337"/>
<polygon fill="#383838" stroke="#383838" points="349,-1845.7613 353.5001,-1855.7613 349,-1850.7613 349.0001,-1855.7613 349.0001,-1855.7613 349.0001,-1855.7613 349,-1850.7613 344.5001,-1855.7614 349,-1845.7613 349,-1845.7613"/>
</g>
<!-- cl26 -->
<g id="node5" class="node">
<title>cl26</title>
<path fill="#f8f8f8" stroke="#383838" d="M275.5,-1263.5C275.5,-1263.5 422.5,-1263.5 422.5,-1263.5 428.5,-1263.5 434.5,-1269.5 434.5,-1275.5 434.5,-1275.5 434.5,-1296.5 434.5,-1296.5 434.5,-1302.5 428.5,-1308.5 422.5,-1308.5 422.5,-1308.5 275.5,-1308.5 275.5,-1308.5 269.5,-1308.5 263.5,-1302.5 263.5,-1296.5 263.5,-1296.5 263.5,-1275.5 263.5,-1275.5 263.5,-1269.5 269.5,-1263.5 275.5,-1263.5"/>
<polygon fill="#f8f8f8" stroke="transparent" points="271.5,-1286.5 271.5,-1304.5 426.5,-1304.5 426.5,-1286.5 271.5,-1286.5"/>
<text text-anchor="start" x="273.8877" y="-1291.3" font-family="Courier,monospace" font-size="14.00" fill="#000000">awaitingCycle3Data</text>
<polyline fill="none" stroke="#383838" points="263.5,-1282.5 434.5,-1282.5 "/>
<text text-anchor="start" x="347.625" y="-1269.7" font-family="Times,serif" font-size="11.00" fill="#000000"> </text>
</g>
<!-- cl23&#45;&gt;cl26 -->
<g id="edge8" class="edge">
<title>cl23&#45;&gt;cl26</title>
<path fill="none" stroke="#383838" d="M349,-1800.2387C349,-1783.6714 349,-1760.6953 349,-1740.5 349,-1740.5 349,-1740.5 349,-1368.5 349,-1352.2491 349,-1334.1975 349,-1319.1337"/>
<polygon fill="#383838" stroke="#383838" points="349,-1308.7613 353.5001,-1318.7613 349,-1313.7613 349.0001,-1318.7613 349.0001,-1318.7613 349.0001,-1318.7613 349,-1313.7613 344.5001,-1318.7614 349,-1308.7613 349,-1308.7613"/>
<text text-anchor="start" x="349" y="-1550.6" font-family="Courier,monospace" font-size="13.00" fill="#000000">awaitCycle3Data</text>
</g>
<!-- cl29 -->
<g id="node6" class="node">
<title>cl29</title>
<path fill="#f8f8f8" stroke="#383838" d="M95,-120.5C95,-120.5 343,-120.5 343,-120.5 349,-120.5 355,-126.5 355,-132.5 355,-132.5 355,-153.5 355,-153.5 355,-159.5 349,-165.5 343,-165.5 343,-165.5 95,-165.5 95,-165.5 89,-165.5 83,-159.5 83,-153.5 83,-153.5 83,-132.5 83,-132.5 83,-126.5 89,-120.5 95,-120.5"/>
<polygon fill="#f8f8f8" stroke="transparent" points="91,-143.5 91,-161.5 347,-161.5 347,-143.5 91,-143.5"/>
<text text-anchor="start" x="92.9795" y="-148.3" font-family="Courier,monospace" font-size="14.00" fill="#000000">userAccountCreationRequestSent</text>
<polyline fill="none" stroke="#383838" points="83,-139.5 355,-139.5 "/>
<text text-anchor="start" x="217.625" y="-126.7" font-family="Times,serif" font-size="11.00" fill="#000000"> </text>
</g>
<!-- cl23&#45;&gt;cl29 -->
<g id="edge9" class="edge">
<title>cl23&#45;&gt;cl29</title>
<path fill="none" stroke="#383838" d="M229.7928,-1810.1149C152.0732,-1798.275 65,-1776.8899 65,-1740.5 65,-1740.5 65,-1740.5 65,-225.5 65,-200.0623 81.5282,-182.4373 103.7551,-170.2362"/>
<polygon fill="#383838" stroke="#383838" points="112.8824,-165.6585 105.9611,-174.1641 108.413,-167.9001 103.9436,-170.1417 103.9436,-170.1417 103.9436,-170.1417 108.413,-167.9001 101.9262,-166.1192 112.8824,-165.6585 112.8824,-165.6585"/>
<text text-anchor="start" x="65" y="-1001.6" font-family="Courier,monospace" font-size="13.00" fill="#000000">sendUserAccountCreationRequest</text>
</g>
<!-- cl36 -->
<g id="node13" class="node">
<title>cl36</title>
<path fill="#f8f8f8" stroke="#383838" d="M549,-597.5C549,-597.5 587,-597.5 587,-597.5 593,-597.5 599,-603.5 599,-609.5 599,-609.5 599,-630.5 599,-630.5 599,-636.5 593,-642.5 587,-642.5 587,-642.5 549,-642.5 549,-642.5 543,-642.5 537,-636.5 537,-630.5 537,-630.5 537,-609.5 537,-609.5 537,-603.5 543,-597.5 549,-597.5"/>
<polygon fill="#f8f8f8" stroke="transparent" points="545,-620.5 545,-638.5 591,-638.5 591,-620.5 545,-620.5"/>
<text text-anchor="start" x="546.9966" y="-625.3" font-family="Courier,monospace" font-size="14.00" fill="#000000">match</text>
<polyline fill="none" stroke="#383838" points="537,-616.5 599,-616.5 "/>
<text text-anchor="start" x="566.625" y="-603.7" font-family="Times,serif" font-size="11.00" fill="#000000"> </text>
</g>
<!-- cl23&#45;&gt;cl36 -->
<g id="edge12" class="edge">
<title>cl23&#45;&gt;cl36</title>
<path fill="none" stroke="#383838" d="M448.2247,-1800.4427C499.3095,-1785.8521 551,-1765.0283 551,-1740.5 551,-1740.5 551,-1740.5 551,-737 551,-708.3425 556.0565,-676.143 560.654,-652.7889"/>
<polygon fill="#383838" stroke="#383838" points="562.7143,-642.7256 565.1171,-653.425 561.7114,-647.624 560.7085,-652.5224 560.7085,-652.5224 560.7085,-652.5224 561.7114,-647.624 556.2999,-651.6198 562.7143,-642.7256 562.7143,-642.7256"/>
<text text-anchor="start" x="551" y="-1223.6" font-family="Courier,monospace" font-size="13.00" fill="#000000">match</text>
</g>
<!-- cl32 -->
<g id="node7" class="node">
<title>cl32</title>
<path fill="#f8f8f8" stroke="#383838" d="M259,-714.5C259,-714.5 439,-714.5 439,-714.5 445,-714.5 451,-720.5 451,-726.5 451,-726.5 451,-747.5 451,-747.5 451,-753.5 445,-759.5 439,-759.5 439,-759.5 259,-759.5 259,-759.5 253,-759.5 247,-753.5 247,-747.5 247,-747.5 247,-726.5 247,-726.5 247,-720.5 253,-714.5 259,-714.5"/>
<polygon fill="#f8f8f8" stroke="transparent" points="255,-737.5 255,-755.5 443,-755.5 443,-737.5 255,-737.5"/>
<text text-anchor="start" x="256.585" y="-742.3" font-family="Courier,monospace" font-size="14.00" fill="#000000">cycle3MatchRequestSent</text>
<polyline fill="none" stroke="#383838" points="247,-733.5 451,-733.5 "/>
<text text-anchor="start" x="347.625" y="-720.7" font-family="Times,serif" font-size="11.00" fill="#000000"> </text>
</g>
<!-- cl26&#45;&gt;cl32 -->
<g id="edge11" class="edge">
<title>cl26&#45;&gt;cl32</title>
<path fill="none" stroke="#383838" d="M349,-1263.4694C349,-1244.3236 349,-1216.1094 349,-1191.5 349,-1191.5 349,-1191.5 349,-819.5 349,-803.2491 349,-785.1975 349,-770.1337"/>
<polygon fill="#383838" stroke="#383838" points="349,-759.7613 353.5001,-769.7613 349,-764.7613 349.0001,-769.7613 349.0001,-769.7613 349.0001,-769.7613 349,-764.7613 344.5001,-769.7614 349,-759.7613 349,-759.7613"/>
<text text-anchor="start" x="349" y="-1001.6" font-family="Courier,monospace" font-size="13.00" fill="#000000">submitCycle3Request</text>
</g>
<!-- cl40 -->
<g id="node14" class="node">
<title>cl40</title>
<path fill="#f8f8f8" stroke="#383838" d="M145.5,-.5C145.5,-.5 292.5,-.5 292.5,-.5 298.5,-.5 304.5,-6.5 304.5,-12.5 304.5,-12.5 304.5,-33.5 304.5,-33.5 304.5,-39.5 298.5,-45.5 292.5,-45.5 292.5,-45.5 145.5,-45.5 145.5,-45.5 139.5,-45.5 133.5,-39.5 133.5,-33.5 133.5,-33.5 133.5,-12.5 133.5,-12.5 133.5,-6.5 139.5,-.5 145.5,-.5"/>
<polygon fill="#f8f8f8" stroke="transparent" points="141.5,-23.5 141.5,-41.5 296.5,-41.5 296.5,-23.5 141.5,-23.5"/>
<text text-anchor="start" x="143.8877" y="-28.3" font-family="Courier,monospace" font-size="14.00" fill="#000000">userAccountCreated</text>
<polyline fill="none" stroke="#383838" points="133.5,-19.5 304.5,-19.5 "/>
<text text-anchor="start" x="217.625" y="-6.7" font-family="Times,serif" font-size="11.00" fill="#000000"> </text>
</g>
<!-- cl29&#45;&gt;cl40 -->
<g id="edge14" class="edge">
<title>cl29&#45;&gt;cl40</title>
<path fill="none" stroke="#383838" d="M219,-120.4289C219,-102.275 219,-76.5098 219,-56.0346"/>
<polygon fill="#383838" stroke="#383838" points="219,-45.8779 223.5001,-55.8778 219,-50.8779 219.0001,-55.8779 219.0001,-55.8779 219.0001,-55.8779 219,-50.8779 214.5001,-55.8779 219,-45.8779 219,-45.8779"/>
<text text-anchor="start" x="219" y="-77.6" font-family="Courier,monospace" font-size="13.00" fill="#000000">userAccountCreationSucceeded</text>
</g>
<!-- cl32&#45;&gt;cl29 -->
<g id="edge10" class="edge">
<title>cl32&#45;&gt;cl29</title>
<path fill="none" stroke="#383838" d="M308.1698,-714.3541C277.5861,-694.0662 241,-661.1887 241,-620 241,-620 241,-620 241,-225.5 241,-208.6383 236.6564,-190.4728 231.8293,-175.4912"/>
<polygon fill="#383838" stroke="#383838" points="228.4577,-165.6832 235.9642,-173.6771 230.0832,-170.4116 231.7086,-175.14 231.7086,-175.14 231.7086,-175.14 230.0832,-170.4116 227.4531,-176.6029 228.4577,-165.6832 228.4577,-165.6832"/>
<text text-anchor="start" x="241" y="-407.6" font-family="Courier,monospace" font-size="13.00" fill="#000000">sendUserAccountCreationRequest</text>
</g>
<!-- cl32&#45;&gt;cl36 -->
<g id="edge13" class="edge">
<title>cl32&#45;&gt;cl36</title>
<path fill="none" stroke="#383838" d="M391.2254,-714.4412C430.6943,-693.3551 489.2021,-662.0975 527.9513,-641.3959"/>
<polygon fill="#383838" stroke="#383838" points="536.8697,-636.6312 530.17,-645.3125 532.4596,-638.9873 528.0495,-641.3434 528.0495,-641.3434 528.0495,-641.3434 532.4596,-638.9873 525.929,-637.3744 536.8697,-636.6312 536.8697,-636.6312"/>
<text text-anchor="start" x="465" y="-674.6" font-family="Courier,monospace" font-size="13.00" fill="#000000">match</text>
</g>
<!-- cl2 -->
<g id="node8" class="node">
<title>cl2</title>
<ellipse fill="#000000" stroke="#000000" cx="524" cy="-2737" rx="7" ry="7"/>
</g>
<!-- cl4 -->
<g id="node9" class="node">
<title>cl4</title>
<path fill="#f8f8f8" stroke="#383838" d="M497,-2625.5C497,-2625.5 551,-2625.5 551,-2625.5 557,-2625.5 563,-2631.5 563,-2637.5 563,-2637.5 563,-2658.5 563,-2658.5 563,-2664.5 557,-2670.5 551,-2670.5 551,-2670.5 497,-2670.5 497,-2670.5 491,-2670.5 485,-2664.5 485,-2658.5 485,-2658.5 485,-2637.5 485,-2637.5 485,-2631.5 491,-2625.5 497,-2625.5"/>
<polygon fill="#f8f8f8" stroke="transparent" points="493,-2648.5 493,-2666.5 555,-2666.5 555,-2648.5 493,-2648.5"/>
<text text-anchor="start" x="494.5952" y="-2653.3" font-family="Courier,monospace" font-size="14.00" fill="#000000">started</text>
<polyline fill="none" stroke="#383838" points="485,-2644.5 563,-2644.5 "/>
<text text-anchor="start" x="522.625" y="-2631.7" font-family="Times,serif" font-size="11.00" fill="#000000"> </text>
</g>
<!-- cl2&#45;&gt;cl4 -->
<g id="edge1" class="edge">
<title>cl2&#45;&gt;cl4</title>
<path fill="none" stroke="#383838" d="M524,-2729.7168C524,-2719.0973 524,-2698.6921 524,-2680.9298"/>
<polygon fill="#383838" stroke="#383838" points="524,-2670.8709 528.5001,-2680.8709 524,-2675.8709 524.0001,-2680.8709 524.0001,-2680.8709 524.0001,-2680.8709 524,-2675.8709 519.5001,-2680.871 524,-2670.8709 524,-2670.8709"/>
</g>
<!-- cl7 -->
<g id="node10" class="node">
<title>cl7</title>
<path fill="#f8f8f8" stroke="#383838" d="M480,-2508.5C480,-2508.5 568,-2508.5 568,-2508.5 574,-2508.5 580,-2514.5 580,-2520.5 580,-2520.5 580,-2541.5 580,-2541.5 580,-2547.5 574,-2553.5 568,-2553.5 568,-2553.5 480,-2553.5 480,-2553.5 474,-2553.5 468,-2547.5 468,-2541.5 468,-2541.5 468,-2520.5 468,-2520.5 468,-2514.5 474,-2508.5 480,-2508.5"/>
<polygon fill="#f8f8f8" stroke="transparent" points="476,-2531.5 476,-2549.5 572,-2549.5 572,-2531.5 476,-2531.5"/>
<text text-anchor="start" x="477.7925" y="-2536.3" font-family="Courier,monospace" font-size="14.00" fill="#000000">idpSelected</text>
<polyline fill="none" stroke="#383838" points="468,-2527.5 580,-2527.5 "/>
<text text-anchor="start" x="522.625" y="-2514.7" font-family="Times,serif" font-size="11.00" fill="#000000"> </text>
</g>
<!-- cl4&#45;&gt;cl7 -->
<g id="edge2" class="edge">
<title>cl4&#45;&gt;cl7</title>
<path fill="none" stroke="#383838" d="M524,-2625.4412C524,-2607.992 524,-2583.5775 524,-2563.9434"/>
<polygon fill="#383838" stroke="#383838" points="524,-2553.8887 528.5001,-2563.8887 524,-2558.8887 524.0001,-2563.8887 524.0001,-2563.8887 524.0001,-2563.8887 524,-2558.8887 519.5001,-2563.8888 524,-2553.8887 524,-2553.8887"/>
<text text-anchor="start" x="524" y="-2585.6" font-family="Courier,monospace" font-size="13.00" fill="#000000">selectIdp</text>
</g>
<!-- cl7&#45;&gt;cluster20_LNK15 -->
<g id="edge4" class="edge">
<title>cl7&#45;&gt;cluster20_LNK15</title>
<path fill="none" stroke="#383838" d="M467.9023,-2526.6579C351.1806,-2517.106 88.574,-2492.7501 30.773,-2456.4202"/>
<polygon fill="#383838" stroke="#383838" points="22.8656,-2449.9954 33.4644,-2452.8089 26.7461,-2453.1484 30.6267,-2456.3014 30.6267,-2456.3014 30.6267,-2456.3014 26.7461,-2453.1484 27.789,-2459.7939 22.8656,-2449.9954 22.8656,-2449.9954"/>
<text text-anchor="start" x="74" y="-2468.6" font-family="Courier,monospace" font-size="13.00" fill="#000000">authenticationSucceeded</text>
</g>
<!-- cl10 -->
<g id="node11" class="node">
<title>cl10</title>
<path fill="#f8f8f8" stroke="#383838" d="M550,-2382.5C550,-2382.5 638,-2382.5 638,-2382.5 644,-2382.5 650,-2388.5 650,-2394.5 650,-2394.5 650,-2415.5 650,-2415.5 650,-2421.5 644,-2427.5 638,-2427.5 638,-2427.5 550,-2427.5 550,-2427.5 544,-2427.5 538,-2421.5 538,-2415.5 538,-2415.5 538,-2394.5 538,-2394.5 538,-2388.5 544,-2382.5 550,-2382.5"/>
<polygon fill="#f8f8f8" stroke="transparent" points="546,-2405.5 546,-2423.5 642,-2423.5 642,-2405.5 546,-2405.5"/>
<text text-anchor="start" x="547.7925" y="-2410.3" font-family="Courier,monospace" font-size="14.00" fill="#000000">authnFailed</text>
<polyline fill="none" stroke="#383838" points="538,-2401.5 650,-2401.5 "/>
<text text-anchor="start" x="592.625" y="-2388.7" font-family="Times,serif" font-size="11.00" fill="#000000"> </text>
</g>
<!-- cl7&#45;&gt;cl10 -->
<g id="edge5" class="edge">
<title>cl7&#45;&gt;cl10</title>
<path fill="none" stroke="#383838" d="M467.8416,-2515.2417C436.3986,-2503.7181 406.9901,-2486.5473 425.9746,-2466 441.2575,-2449.4591 506.0375,-2466.2306 527,-2458 540.664,-2452.635 553.7775,-2443.4961 564.7236,-2434.3034"/>
<polygon fill="#383838" stroke="#383838" points="572.2879,-2427.6533 567.7487,-2437.6356 568.5327,-2430.9546 564.7775,-2434.256 564.7775,-2434.256 564.7775,-2434.256 568.5327,-2430.9546 561.8063,-2430.8763 572.2879,-2427.6533 572.2879,-2427.6533"/>
<text text-anchor="start" x="425" y="-2468.6" font-family="Courier,monospace" font-size="13.00" fill="#000000">authenticationFailed</text>
</g>
<!-- cl17 -->
<g id="node12" class="node">
<title>cl17</title>
<path fill="#f8f8f8" stroke="#383838" d="M687.5,-2382.5C687.5,-2382.5 792.5,-2382.5 792.5,-2382.5 798.5,-2382.5 804.5,-2388.5 804.5,-2394.5 804.5,-2394.5 804.5,-2415.5 804.5,-2415.5 804.5,-2421.5 798.5,-2427.5 792.5,-2427.5 792.5,-2427.5 687.5,-2427.5 687.5,-2427.5 681.5,-2427.5 675.5,-2421.5 675.5,-2415.5 675.5,-2415.5 675.5,-2394.5 675.5,-2394.5 675.5,-2388.5 681.5,-2382.5 687.5,-2382.5"/>
<polygon fill="#f8f8f8" stroke="transparent" points="683.5,-2405.5 683.5,-2423.5 796.5,-2423.5 796.5,-2405.5 683.5,-2405.5"/>
<text text-anchor="start" x="685.8911" y="-2410.3" font-family="Courier,monospace" font-size="14.00" fill="#000000">fraudResponse</text>
<polyline fill="none" stroke="#383838" points="675.5,-2401.5 804.5,-2401.5 "/>
<text text-anchor="start" x="738.625" y="-2388.7" font-family="Times,serif" font-size="11.00" fill="#000000"> </text>
</g>
<!-- cl7&#45;&gt;cl17 -->
<g id="edge6" class="edge">
<title>cl7&#45;&gt;cl17</title>
<path fill="none" stroke="#383838" d="M580.0462,-2517.2029C607.8793,-2508.794 641.1952,-2496.2877 668,-2479 686.0481,-2467.3598 702.9735,-2450.4063 715.8738,-2435.6625"/>
<polygon fill="#383838" stroke="#383838" points="722.608,-2427.7467 719.5558,-2438.2792 719.3682,-2431.555 716.1283,-2435.3633 716.1283,-2435.3633 716.1283,-2435.3633 719.3682,-2431.555 712.7008,-2432.4474 722.608,-2427.7467 722.608,-2427.7467"/>
<text text-anchor="start" x="683" y="-2468.6" font-family="Courier,monospace" font-size="13.00" fill="#000000">fraudResponse</text>
</g>
<!-- cl10&#45;&gt;cl7 -->
<g id="edge3" class="edge">
<title>cl10&#45;&gt;cl7</title>
<path fill="none" stroke="#383838" d="M596.6334,-2427.6413C597.3838,-2442.9875 596.2878,-2463.2614 588,-2479 583.5422,-2487.4654 577.0505,-2495.0546 569.8905,-2501.6482"/>
<polygon fill="#383838" stroke="#383838" points="561.9236,-2508.4066 566.6383,-2498.506 565.7365,-2505.1721 569.5494,-2501.9376 569.5494,-2501.9376 569.5494,-2501.9376 565.7365,-2505.1721 572.4604,-2505.3692 561.9236,-2508.4066 561.9236,-2508.4066"/>
<text text-anchor="start" x="592" y="-2468.6" font-family="Courier,monospace" font-size="13.00" fill="#000000">selectIdp</text>
</g>
</g>
</svg>
