<?xml version="1.0" encoding="UTF-8" standalone="no"?>
<!DOCTYPE svg PUBLIC "-//W3C//DTD SVG 1.1//EN"
 "http://www.w3.org/Graphics/SVG/1.1/DTD/svg11.dtd">
<!-- Generated by graphviz version 2.40.1 (20161225.0304)
 -->
<!-- Title: unix Pages: 1 -->
<svg xmlns="http://www.w3.org/2000/svg" xmlns:xlink="http://www.w3.org/1999/xlink" style="width:366;height:597;" width="366pt" height="597pt" viewBox="0 0 366 597">
<g id="graph0" class="graph" transform="scale(1 1) rotate(0) translate(4 593)">
<title>unix</title>
<polygon fill="#ffffff" stroke="transparent" points="-4,4 -4,-593 362,-593 362,4 -4,4"/>
<!-- cl32 -->
<g id="node1" class="node">
<title>cl32</title>
<path fill="#f8f8f8" stroke="#383838" d="M39,-470.5C39,-470.5 127,-470.5 127,-470.5 133,-470.5 139,-476.5 139,-482.5 139,-482.5 139,-503.5 139,-503.5 139,-509.5 133,-515.5 127,-515.5 127,-515.5 39,-515.5 39,-515.5 33,-515.5 27,-509.5 27,-503.5 27,-503.5 27,-482.5 27,-482.5 27,-476.5 33,-470.5 39,-470.5"/>
<polygon fill="#f8f8f8" stroke="transparent" points="35,-493.5 35,-511.5 131,-511.5 131,-493.5 35,-493.5"/>
<text text-anchor="start" x="36.7925" y="-498.3" font-family="Courier,monospace" font-size="14.00" fill="#000000">authnFailed</text>
<polyline fill="none" stroke="#383838" points="27,-489.5 139,-489.5 "/>
<text text-anchor="start" x="81.625" y="-476.7" font-family="Times,serif" font-size="11.00" fill="#000000"> </text>
</g>
<!-- cl34 -->
<g id="node2" class="node">
<title>cl34</title>
<path fill="#f8f8f8" stroke="#383838" d="M89,-353.5C89,-353.5 177,-353.5 177,-353.5 183,-353.5 189,-359.5 189,-365.5 189,-365.5 189,-386.5 189,-386.5 189,-392.5 183,-398.5 177,-398.5 177,-398.5 89,-398.5 89,-398.5 83,-398.5 77,-392.5 77,-386.5 77,-386.5 77,-365.5 77,-365.5 77,-359.5 83,-353.5 89,-353.5"/>
<polygon fill="#f8f8f8" stroke="transparent" points="85,-376.5 85,-394.5 181,-394.5 181,-376.5 85,-376.5"/>
<text text-anchor="start" x="86.7925" y="-381.3" font-family="Courier,monospace" font-size="14.00" fill="#000000">idpSelected</text>
<polyline fill="none" stroke="#383838" points="77,-372.5 189,-372.5 "/>
<text text-anchor="start" x="131.625" y="-359.7" font-family="Times,serif" font-size="11.00" fill="#000000"> </text>
</g>
<!-- cl32&#45;&gt;cl34 -->
<g id="edge1" class="edge">
<title>cl32&#45;&gt;cl34</title>
<path fill="none" stroke="#383838" d="M47.7392,-470.2148C33.6763,-458.1696 22.7308,-442.837 31.7886,-428 40.2277,-414.1765 53.6418,-403.8738 67.979,-396.2546"/>
<polygon fill="#383838" stroke="#383838" points="76.989,-391.8498 69.9815,-400.2846 72.497,-394.0459 68.0051,-396.2419 68.0051,-396.2419 68.0051,-396.2419 72.497,-394.0459 66.0286,-392.1991 76.989,-391.8498 76.989,-391.8498"/>
<text text-anchor="start" x="32" y="-430.6" font-family="Courier,monospace" font-size="13.00" fill="#000000">selectIdp</text>
</g>
<!-- cl34&#45;&gt;cl32 -->
<g id="edge3" class="edge">
<title>cl34&#45;&gt;cl32</title>
<path fill="none" stroke="#383838" d="M123.2185,-398.8887C115.6207,-416.6675 104.9959,-441.5296 96.5746,-461.2353"/>
<polygon fill="#383838" stroke="#383838" points="92.6405,-470.4412 92.4323,-459.4773 94.6054,-465.8435 96.5703,-461.2457 96.5703,-461.2457 96.5703,-461.2457 94.6054,-465.8435 100.7083,-463.0141 92.6405,-470.4412 92.6405,-470.4412"/>
<text text-anchor="start" x="110" y="-430.6" font-family="Courier,monospace" font-size="13.00" fill="#000000">authenticationFailed</text>
</g>
<!-- cl56 -->
<g id="node5" class="node">
<title>cl56</title>
<path fill="#f8f8f8" stroke="#383838" d="M12,-.5C12,-.5 254,-.5 254,-.5 260,-.5 266,-6.5 266,-12.5 266,-12.5 266,-269.5 266,-269.5 266,-275.5 260,-281.5 254,-281.5 254,-281.5 12,-281.5 12,-281.5 6,-281.5 0,-275.5 0,-269.5 0,-269.5 0,-12.5 0,-12.5 0,-6.5 6,-.5 12,-.5"/>
<polygon fill="#f8f8f8" stroke="transparent" points="97.5,-259.5 97.5,-277.5 168.5,-277.5 168.5,-259.5 97.5,-259.5"/>
<text text-anchor="start" x="99.8945" y="-264.3" font-family="Courier,monospace" font-size="14.00" fill="#000000">matching</text>
<polyline fill="none" stroke="#383838" points="0,-255.5 266,-255.5 "/>
<polygon fill="#ffffff" stroke="transparent" points="8,-4 8,-251 258,-251 258,-4 8,-4"/>
<svg x="10.0" y="-249.0">
<g id="graph0" class="graph" transform="scale(1 1) rotate(0) translate(4 240)">
<title>unix</title>
<polygon fill="#ffffff" stroke="transparent" points="-4,4 -4,-240 242,-240 242,4 -4,4"/>
<!-- cl40 -->
<g id="node1" class="node">
<title>cl40</title>
<ellipse fill="#000000" stroke="#000000" cx="119" cy="-229" rx="7" ry="7"/>
</g>
<!-- cl42 -->
<g id="node2" class="node">
<title>cl42</title>
<path fill="#f8f8f8" stroke="#383838" d="M12,-117.5C12,-117.5 226,-117.5 226,-117.5 232,-117.5 238,-123.5 238,-129.5 238,-129.5 238,-150.5 238,-150.5 238,-156.5 232,-162.5 226,-162.5 226,-162.5 12,-162.5 12,-162.5 6,-162.5 0,-156.5 0,-150.5 0,-150.5 0,-129.5 0,-129.5 0,-123.5 6,-117.5 12,-117.5"/>
<polygon fill="#f8f8f8" stroke="transparent" points="8,-140.5 8,-158.5 230,-158.5 230,-140.5 8,-140.5"/>
<text text-anchor="start" x="9.7822" y="-145.3" font-family="Courier,monospace" font-size="14.00" fill="#000000">cycle0And1MatchRequestSent</text>
<polyline fill="none" stroke="#383838" points="0,-136.5 238,-136.5 "/>
<text text-anchor="start" x="117.625" y="-123.7" font-family="Times,serif" font-size="11.00" fill="#000000"> </text>
</g>
<!-- cl40&#45;&gt;cl42 -->
<g id="edge1" class="edge">
<title>cl40&#45;&gt;cl42</title>
<path fill="none" stroke="#383838" d="M119,-221.7168C119,-211.0973 119,-190.6921 119,-172.9298"/>
<polygon fill="#383838" stroke="#383838" points="119,-162.8709 123.5001,-172.8709 119,-167.8709 119.0001,-172.8709 119.0001,-172.8709 119.0001,-172.8709 119,-167.8709 114.5001,-172.871 119,-162.8709 119,-162.8709"/>
</g>
<!-- cl45 -->
<g id="node3" class="node">
<title>cl45</title>
<path fill="#f8f8f8" stroke="#383838" d="M45.5,-.5C45.5,-.5 192.5,-.5 192.5,-.5 198.5,-.5 204.5,-6.5 204.5,-12.5 204.5,-12.5 204.5,-33.5 204.5,-33.5 204.5,-39.5 198.5,-45.5 192.5,-45.5 192.5,-45.5 45.5,-45.5 45.5,-45.5 39.5,-45.5 33.5,-39.5 33.5,-33.5 33.5,-33.5 33.5,-12.5 33.5,-12.5 33.5,-6.5 39.5,-.5 45.5,-.5"/>
<polygon fill="#f8f8f8" stroke="transparent" points="41.5,-23.5 41.5,-41.5 196.5,-41.5 196.5,-23.5 41.5,-23.5"/>
<text text-anchor="start" x="43.8877" y="-28.3" font-family="Courier,monospace" font-size="14.00" fill="#000000">awaitingCycle3Data</text>
<polyline fill="none" stroke="#383838" points="33.5,-19.5 204.5,-19.5 "/>
<text text-anchor="start" x="117.625" y="-6.7" font-family="Times,serif" font-size="11.00" fill="#000000"> </text>
</g>
<!-- cl42&#45;&gt;cl45 -->
<g id="edge2" class="edge">
<title>cl42&#45;&gt;cl45</title>
<path fill="none" stroke="#383838" d="M119,-117.4412C119,-99.992 119,-75.5775 119,-55.9434"/>
<polygon fill="#383838" stroke="#383838" points="119,-45.8887 123.5001,-55.8887 119,-50.8887 119.0001,-55.8887 119.0001,-55.8887 119.0001,-55.8887 119,-50.8887 114.5001,-55.8888 119,-45.8887 119,-45.8887"/>
<text text-anchor="start" x="119" y="-77.6" font-family="Courier,monospace" font-size="13.00" fill="#000000">awaitCycle3Data</text>
</g>
</g>

</svg>
</g>
<!-- cl34&#45;&gt;cl56 -->
<g id="edge2" class="edge">
<title>cl34&#45;&gt;cl56</title>
<path fill="none" stroke="#383838" d="M133,-353.4672C133,-337.9685 133,-315.8855 133,-291.7643"/>
<polygon fill="#383838" stroke="#383838" points="133,-281.69 137.5001,-291.6899 133,-286.69 133.0001,-291.69 133.0001,-291.69 133.0001,-291.69 133,-286.69 128.5001,-291.69 133,-281.69 133,-281.69"/>
<text text-anchor="start" x="133" y="-313.6" font-family="Courier,monospace" font-size="13.00" fill="#000000">authenticationSucceeded</text>
</g>
<!-- cl50 -->
<g id="node3" class="node">
<title>cl50</title>
<ellipse fill="#000000" stroke="#000000" cx="319" cy="-582" rx="7" ry="7"/>
</g>
<!-- cl52 -->
<g id="node4" class="node">
<title>cl52</title>
<path fill="#f8f8f8" stroke="#383838" d="M292,-470.5C292,-470.5 346,-470.5 346,-470.5 352,-470.5 358,-476.5 358,-482.5 358,-482.5 358,-503.5 358,-503.5 358,-509.5 352,-515.5 346,-515.5 346,-515.5 292,-515.5 292,-515.5 286,-515.5 280,-509.5 280,-503.5 280,-503.5 280,-482.5 280,-482.5 280,-476.5 286,-470.5 292,-470.5"/>
<polygon fill="#f8f8f8" stroke="transparent" points="288,-493.5 288,-511.5 350,-511.5 350,-493.5 288,-493.5"/>
<text text-anchor="start" x="289.5952" y="-498.3" font-family="Courier,monospace" font-size="14.00" fill="#000000">started</text>
<polyline fill="none" stroke="#383838" points="280,-489.5 358,-489.5 "/>
<text text-anchor="start" x="317.625" y="-476.7" font-family="Times,serif" font-size="11.00" fill="#000000"> </text>
</g>
<!-- cl50&#45;&gt;cl52 -->
<g id="edge4" class="edge">
<title>cl50&#45;&gt;cl52</title>
<path fill="none" stroke="#383838" d="M319,-574.7168C319,-564.0973 319,-543.6921 319,-525.9298"/>
<polygon fill="#383838" stroke="#383838" points="319,-515.8709 323.5001,-525.8709 319,-520.8709 319.0001,-525.8709 319.0001,-525.8709 319.0001,-525.8709 319,-520.8709 314.5001,-525.871 319,-515.8709 319,-515.8709"/>
</g>
<!-- cl52&#45;&gt;cl34 -->
<g id="edge5" class="edge">
<title>cl52&#45;&gt;cl34</title>
<path fill="none" stroke="#383838" d="M307.2621,-470.4917C299.0216,-456.5922 286.8399,-439.3134 272,-428 250.5647,-411.6585 223.4365,-399.9893 198.8477,-391.9025"/>
<polygon fill="#383838" stroke="#383838" points="189.2091,-388.869 200.0989,-387.5788 193.9785,-390.3701 198.7479,-391.8712 198.7479,-391.8712 198.7479,-391.8712 193.9785,-390.3701 197.3969,-396.1636 189.2091,-388.869 189.2091,-388.869"/>
<text text-anchor="start" x="284" y="-430.6" font-family="Courier,monospace" font-size="13.00" fill="#000000">selectIdp</text>
</g>
</g>
</svg>
