<?xml version="1.0" encoding="UTF-8" standalone="no"?>
<!DOCTYPE svg PUBLIC "-//W3C//DTD SVG 1.1//EN"
 "http://www.w3.org/Graphics/SVG/1.1/DTD/svg11.dtd">
<!-- Generated by graphviz version 2.40.1 (20161225.0304)
 -->
<!-- Title: unix Pages: 1 -->
<svg xmlns="http://www.w3.org/2000/svg" xmlns:xlink="http://www.w3.org/1999/xlink" style="width:491;height:831;" width="491pt" height="831pt" viewBox="0 0 491 831">
<g id="graph0" class="graph" transform="scale(1 1) rotate(0) translate(4 827)">
<title>unix</title>
<polygon fill="#ffffff" stroke="transparent" points="-4,4 -4,-827 487,-827 487,4 -4,4"/>
<!-- cl74 -->
<g id="node1" class="node">
<title>cl74</title>
<path fill="#f8f8f8" stroke="#383838" d="M97.5,-704.5C97.5,-704.5 185.5,-704.5 185.5,-704.5 191.5,-704.5 197.5,-710.5 197.5,-716.5 197.5,-716.5 197.5,-737.5 197.5,-737.5 197.5,-743.5 191.5,-749.5 185.5,-749.5 185.5,-749.5 97.5,-749.5 97.5,-749.5 91.5,-749.5 85.5,-743.5 85.5,-737.5 85.5,-737.5 85.5,-716.5 85.5,-716.5 85.5,-710.5 91.5,-704.5 97.5,-704.5"/>
<polygon fill="#f8f8f8" stroke="transparent" points="93.5,-727.5 93.5,-745.5 189.5,-745.5 189.5,-727.5 93.5,-727.5"/>
<text text-anchor="start" x="95.2925" y="-732.3" font-family="Courier,monospace" font-size="14.00" fill="#000000">authnFailed</text>
<polyline fill="none" stroke="#383838" points="85.5,-723.5 197.5,-723.5 "/>
<text text-anchor="start" x="140.125" y="-710.7" font-family="Times,serif" font-size="11.00" fill="#000000"> </text>
</g>
<!-- cl76 -->
<g id="node2" class="node">
<title>cl76</title>
<path fill="#f8f8f8" stroke="#383838" d="M147.5,-587.5C147.5,-587.5 235.5,-587.5 235.5,-587.5 241.5,-587.5 247.5,-593.5 247.5,-599.5 247.5,-599.5 247.5,-620.5 247.5,-620.5 247.5,-626.5 241.5,-632.5 235.5,-632.5 235.5,-632.5 147.5,-632.5 147.5,-632.5 141.5,-632.5 135.5,-626.5 135.5,-620.5 135.5,-620.5 135.5,-599.5 135.5,-599.5 135.5,-593.5 141.5,-587.5 147.5,-587.5"/>
<polygon fill="#f8f8f8" stroke="transparent" points="143.5,-610.5 143.5,-628.5 239.5,-628.5 239.5,-610.5 143.5,-610.5"/>
<text text-anchor="start" x="145.2925" y="-615.3" font-family="Courier,monospace" font-size="14.00" fill="#000000">idpSelected</text>
<polyline fill="none" stroke="#383838" points="135.5,-606.5 247.5,-606.5 "/>
<text text-anchor="start" x="190.125" y="-593.7" font-family="Times,serif" font-size="11.00" fill="#000000"> </text>
</g>
<!-- cl74&#45;&gt;cl76 -->
<g id="edge1" class="edge">
<title>cl74&#45;&gt;cl76</title>
<path fill="none" stroke="#383838" d="M106.2392,-704.2148C92.1763,-692.1696 81.2308,-676.837 90.2886,-662 98.7277,-648.1765 112.1418,-637.8738 126.479,-630.2546"/>
<polygon fill="#383838" stroke="#383838" points="135.489,-625.8498 128.4815,-634.2846 130.997,-628.0459 126.5051,-630.2419 126.5051,-630.2419 126.5051,-630.2419 130.997,-628.0459 124.5286,-626.1991 135.489,-625.8498 135.489,-625.8498"/>
<text text-anchor="start" x="90.5" y="-664.6" font-family="Courier,monospace" font-size="13.00" fill="#000000">selectIdp</text>
</g>
<!-- cl76&#45;&gt;cl74 -->
<g id="edge3" class="edge">
<title>cl76&#45;&gt;cl74</title>
<path fill="none" stroke="#383838" d="M181.7185,-632.8887C174.1207,-650.6675 163.4959,-675.5296 155.0746,-695.2353"/>
<polygon fill="#383838" stroke="#383838" points="151.1405,-704.4412 150.9323,-693.4773 153.1054,-699.8435 155.0703,-695.2457 155.0703,-695.2457 155.0703,-695.2457 153.1054,-699.8435 159.2083,-697.0141 151.1405,-704.4412 151.1405,-704.4412"/>
<text text-anchor="start" x="168.5" y="-664.6" font-family="Courier,monospace" font-size="13.00" fill="#000000">authenticationFailed</text>
</g>
<!-- cl83 -->
<g id="node3" class="node">
<title>cl83</title>
<path fill="#f8f8f8" stroke="#383838" d="M12,-235.5C12,-235.5 117,-235.5 117,-235.5 123,-235.5 129,-241.5 129,-247.5 129,-247.5 129,-268.5 129,-268.5 129,-274.5 123,-280.5 117,-280.5 117,-280.5 12,-280.5 12,-280.5 6,-280.5 0,-274.5 0,-268.5 0,-268.5 0,-247.5 0,-247.5 0,-241.5 6,-235.5 12,-235.5"/>
<polygon fill="#f8f8f8" stroke="transparent" points="8,-258.5 8,-276.5 121,-276.5 121,-258.5 8,-258.5"/>
<text text-anchor="start" x="10.3911" y="-263.3" font-family="Courier,monospace" font-size="14.00" fill="#000000">fraudResponse</text>
<polyline fill="none" stroke="#383838" points="0,-254.5 129,-254.5 "/>
<text text-anchor="start" x="63.125" y="-241.7" font-family="Times,serif" font-size="11.00" fill="#000000"> </text>
</g>
<!-- cl76&#45;&gt;cl83 -->
<g id="edge4" class="edge">
<title>cl76&#45;&gt;cl83</title>
<path fill="none" stroke="#383838" d="M138.0306,-587.3582C125.7491,-579.7478 113.9905,-570.0465 106.0835,-558 51.216,-474.4075 54.9172,-349.4666 60.4497,-290.7326"/>
<polygon fill="#383838" stroke="#383838" points="61.4904,-280.5611 64.9492,-290.9672 60.9815,-285.5351 60.4725,-290.5091 60.4725,-290.5091 60.4725,-290.5091 60.9815,-285.5351 55.9959,-290.0511 61.4904,-280.5611 61.4904,-280.5611"/>
<text text-anchor="start" x="106.5" y="-547.6" font-family="Courier,monospace" font-size="13.00" fill="#000000">fraudResponse</text>
</g>
<!-- cl108 -->
<g id="node6" class="node">
<title>cl108</title>
<path fill="#f8f8f8" stroke="#383838" d="M166,-.5C166,-.5 471,-.5 471,-.5 477,-.5 483,-6.5 483,-12.5 483,-12.5 483,-503.5 483,-503.5 483,-509.5 477,-515.5 471,-515.5 471,-515.5 166,-515.5 166,-515.5 160,-515.5 154,-509.5 154,-503.5 154,-503.5 154,-12.5 154,-12.5 154,-6.5 160,-.5 166,-.5"/>
<polygon fill="#f8f8f8" stroke="transparent" points="283,-493.5 283,-511.5 354,-511.5 354,-493.5 283,-493.5"/>
<text text-anchor="start" x="285.3945" y="-498.3" font-family="Courier,monospace" font-size="14.00" fill="#000000">matching</text>
<polyline fill="none" stroke="#383838" points="154,-489.5 483,-489.5 "/>
<polygon fill="#ffffff" stroke="transparent" points="162.5,-4 162.5,-485 475.5,-485 475.5,-4 162.5,-4"/>
<svg x="164.5" y="-483.0">
<g id="graph0" class="graph" transform="scale(1 1) rotate(0) translate(4 474)">
<title>unix</title>
<polygon fill="#ffffff" stroke="transparent" points="-4,4 -4,-474 305,-474 305,4 -4,4"/>
<!-- cl87 -->
<g id="node1" class="node">
<title>cl87</title>
<path fill="#f8f8f8" stroke="#383838" d="M30.5,-234.5C30.5,-234.5 177.5,-234.5 177.5,-234.5 183.5,-234.5 189.5,-240.5 189.5,-246.5 189.5,-246.5 189.5,-267.5 189.5,-267.5 189.5,-273.5 183.5,-279.5 177.5,-279.5 177.5,-279.5 30.5,-279.5 30.5,-279.5 24.5,-279.5 18.5,-273.5 18.5,-267.5 18.5,-267.5 18.5,-246.5 18.5,-246.5 18.5,-240.5 24.5,-234.5 30.5,-234.5"/>
<polygon fill="#f8f8f8" stroke="transparent" points="26.5,-257.5 26.5,-275.5 181.5,-275.5 181.5,-257.5 26.5,-257.5"/>
<text text-anchor="start" x="28.8877" y="-262.3" font-family="Courier,monospace" font-size="14.00" fill="#000000">awaitingCycle3Data</text>
<polyline fill="none" stroke="#383838" points="18.5,-253.5 189.5,-253.5 "/>
<text text-anchor="start" x="102.625" y="-240.7" font-family="Times,serif" font-size="11.00" fill="#000000"> </text>
</g>
<!-- cl89 -->
<g id="node2" class="node">
<title>cl89</title>
<path fill="#f8f8f8" stroke="#383838" d="M12,-117.5C12,-117.5 192,-117.5 192,-117.5 198,-117.5 204,-123.5 204,-129.5 204,-129.5 204,-150.5 204,-150.5 204,-156.5 198,-162.5 192,-162.5 192,-162.5 12,-162.5 12,-162.5 6,-162.5 0,-156.5 0,-150.5 0,-150.5 0,-129.5 0,-129.5 0,-123.5 6,-117.5 12,-117.5"/>
<polygon fill="#f8f8f8" stroke="transparent" points="8,-140.5 8,-158.5 196,-158.5 196,-140.5 8,-140.5"/>
<text text-anchor="start" x="9.585" y="-145.3" font-family="Courier,monospace" font-size="14.00" fill="#000000">cycle3MatchRequestSent</text>
<polyline fill="none" stroke="#383838" points="0,-136.5 204,-136.5 "/>
<text text-anchor="start" x="100.625" y="-123.7" font-family="Times,serif" font-size="11.00" fill="#000000"> </text>
</g>
<!-- cl87&#45;&gt;cl89 -->
<g id="edge1" class="edge">
<title>cl87&#45;&gt;cl89</title>
<path fill="none" stroke="#383838" d="M91.9653,-234.3525C87.8757,-225.4605 83.8238,-215.0029 81.7759,-205 79.5484,-194.1201 81.6811,-182.4696 85.2732,-172.0801"/>
<polygon fill="#383838" stroke="#383838" points="89.0696,-162.5718 89.5407,-173.5275 87.2155,-167.2153 85.3615,-171.8589 85.3615,-171.8589 85.3615,-171.8589 87.2155,-167.2153 81.1823,-170.1902 89.0696,-162.5718 89.0696,-162.5718"/>
<text text-anchor="start" x="82" y="-194.6" font-family="Courier,monospace" font-size="13.00" fill="#000000">submitCycle3Request</text>
</g>
<!-- cl98 -->
<g id="node5" class="node">
<title>cl98</title>
<path fill="#f8f8f8" stroke="#383838" d="M172,-.5C172,-.5 210,-.5 210,-.5 216,-.5 222,-6.5 222,-12.5 222,-12.5 222,-33.5 222,-33.5 222,-39.5 216,-45.5 210,-45.5 210,-45.5 172,-45.5 172,-45.5 166,-45.5 160,-39.5 160,-33.5 160,-33.5 160,-12.5 160,-12.5 160,-6.5 166,-.5 172,-.5"/>
<polygon fill="#f8f8f8" stroke="transparent" points="168,-23.5 168,-41.5 214,-41.5 214,-23.5 168,-23.5"/>
<text text-anchor="start" x="169.9966" y="-28.3" font-family="Courier,monospace" font-size="14.00" fill="#000000">match</text>
<polyline fill="none" stroke="#383838" points="160,-19.5 222,-19.5 "/>
<text text-anchor="start" x="189.625" y="-6.7" font-family="Times,serif" font-size="11.00" fill="#000000"> </text>
</g>
<!-- cl89&#45;&gt;cl98 -->
<g id="edge5" class="edge">
<title>cl89&#45;&gt;cl98</title>
<path fill="none" stroke="#383838" d="M119.1601,-117.4412C132.8616,-99.4291 152.2089,-73.9951 167.3742,-54.0587"/>
<polygon fill="#383838" stroke="#383838" points="173.5889,-45.8887 171.1162,-56.5722 170.5618,-49.8682 167.5346,-53.8478 167.5346,-53.8478 167.5346,-53.8478 170.5618,-49.8682 163.953,-51.1233 173.5889,-45.8887 173.5889,-45.8887"/>
<text text-anchor="start" x="150" y="-77.6" font-family="Courier,monospace" font-size="13.00" fill="#000000">match</text>
</g>
<!-- cl92 -->
<g id="node3" class="node">
<title>cl92</title>
<ellipse fill="#000000" stroke="#000000" cx="182" cy="-463" rx="7" ry="7"/>
</g>
<!-- cl94 -->
<g id="node4" class="node">
<title>cl94</title>
<path fill="#f8f8f8" stroke="#383838" d="M75,-351.5C75,-351.5 289,-351.5 289,-351.5 295,-351.5 301,-357.5 301,-363.5 301,-363.5 301,-384.5 301,-384.5 301,-390.5 295,-396.5 289,-396.5 289,-396.5 75,-396.5 75,-396.5 69,-396.5 63,-390.5 63,-384.5 63,-384.5 63,-363.5 63,-363.5 63,-357.5 69,-351.5 75,-351.5"/>
<polygon fill="#f8f8f8" stroke="transparent" points="71,-374.5 71,-392.5 293,-392.5 293,-374.5 71,-374.5"/>
<text text-anchor="start" x="72.7822" y="-379.3" font-family="Courier,monospace" font-size="14.00" fill="#000000">cycle0And1MatchRequestSent</text>
<polyline fill="none" stroke="#383838" points="63,-370.5 301,-370.5 "/>
<text text-anchor="start" x="180.625" y="-357.7" font-family="Times,serif" font-size="11.00" fill="#000000"> </text>
</g>
<!-- cl92&#45;&gt;cl94 -->
<g id="edge2" class="edge">
<title>cl92&#45;&gt;cl94</title>
<path fill="none" stroke="#383838" d="M182,-455.7168C182,-445.0973 182,-424.6921 182,-406.9298"/>
<polygon fill="#383838" stroke="#383838" points="182,-396.8709 186.5001,-406.8709 182,-401.8709 182.0001,-406.8709 182.0001,-406.8709 182.0001,-406.8709 182,-401.8709 177.5001,-406.871 182,-396.8709 182,-396.8709"/>
</g>
<!-- cl94&#45;&gt;cl87 -->
<g id="edge3" class="edge">
<title>cl94&#45;&gt;cl87</title>
<path fill="none" stroke="#383838" d="M151.4747,-351.3863C141.9031,-343.0406 132.0136,-332.9283 124.981,-322 118.6431,-312.1514 114.0727,-300.2272 110.8493,-289.2948"/>
<polygon fill="#383838" stroke="#383838" points="108.2556,-279.6217 115.192,-288.1151 109.5506,-284.4511 110.8455,-289.2806 110.8455,-289.2806 110.8455,-289.2806 109.5506,-284.4511 106.499,-290.446 108.2556,-279.6217 108.2556,-279.6217"/>
<text text-anchor="start" x="125" y="-311.6" font-family="Courier,monospace" font-size="13.00" fill="#000000">awaitCycle3Data</text>
</g>
<!-- cl94&#45;&gt;cl98 -->
<g id="edge4" class="edge">
<title>cl94&#45;&gt;cl98</title>
<path fill="none" stroke="#383838" d="M219.332,-351.4795C229.1995,-343.5054 238.5958,-333.5858 244,-322 286.2388,-231.4458 236.8808,-111.0822 208.4042,-54.6866"/>
<polygon fill="#383838" stroke="#383838" points="203.6934,-45.5593 212.2786,-52.3817 205.9866,-50.0024 208.2798,-54.4456 208.2798,-54.4456 208.2798,-54.4456 205.9866,-50.0024 204.281,-56.5095 203.6934,-45.5593 203.6934,-45.5593"/>
<text text-anchor="start" x="258" y="-194.6" font-family="Courier,monospace" font-size="13.00" fill="#000000">match</text>
</g>
</g>

</svg>
</g>
<!-- cl76&#45;&gt;cl108 -->
<g id="edge2" class="edge">
<title>cl76&#45;&gt;cl108</title>
<path fill="none" stroke="#383838" d="M199.6376,-587.4453C205.123,-572.2419 213.0134,-550.3724 222.1575,-525.0281"/>
<polygon fill="#383838" stroke="#383838" points="225.581,-515.5394 226.42,-526.4731 223.884,-520.2426 222.1871,-524.9459 222.1871,-524.9459 222.1871,-524.9459 223.884,-520.2426 217.9542,-523.4186 225.581,-515.5394 225.581,-515.5394"/>
<text text-anchor="start" x="213.5" y="-547.6" font-family="Courier,monospace" font-size="13.00" fill="#000000">authenticationSucceeded</text>
</g>
<!-- cl102 -->
<g id="node4" class="node">
<title>cl102</title>
<ellipse fill="#000000" stroke="#000000" cx="377.5" cy="-816" rx="7" ry="7"/>
</g>
<!-- cl104 -->
<g id="node5" class="node">
<title>cl104</title>
<path fill="#f8f8f8" stroke="#383838" d="M350.5,-704.5C350.5,-704.5 404.5,-704.5 404.5,-704.5 410.5,-704.5 416.5,-710.5 416.5,-716.5 416.5,-716.5 416.5,-737.5 416.5,-737.5 416.5,-743.5 410.5,-749.5 404.5,-749.5 404.5,-749.5 350.5,-749.5 350.5,-749.5 344.5,-749.5 338.5,-743.5 338.5,-737.5 338.5,-737.5 338.5,-716.5 338.5,-716.5 338.5,-710.5 344.5,-704.5 350.5,-704.5"/>
<polygon fill="#f8f8f8" stroke="transparent" points="346.5,-727.5 346.5,-745.5 408.5,-745.5 408.5,-727.5 346.5,-727.5"/>
<text text-anchor="start" x="348.0952" y="-732.3" font-family="Courier,monospace" font-size="14.00" fill="#000000">started</text>
<polyline fill="none" stroke="#383838" points="338.5,-723.5 416.5,-723.5 "/>
<text text-anchor="start" x="376.125" y="-710.7" font-family="Times,serif" font-size="11.00" fill="#000000"> </text>
</g>
<!-- cl102&#45;&gt;cl104 -->
<g id="edge5" class="edge">
<title>cl102&#45;&gt;cl104</title>
<path fill="none" stroke="#383838" d="M377.5,-808.7168C377.5,-798.0973 377.5,-777.6921 377.5,-759.9298"/>
<polygon fill="#383838" stroke="#383838" points="377.5,-749.8709 382.0001,-759.8709 377.5,-754.8709 377.5001,-759.8709 377.5001,-759.8709 377.5001,-759.8709 377.5,-754.8709 373.0001,-759.871 377.5,-749.8709 377.5,-749.8709"/>
</g>
<!-- cl104&#45;&gt;cl76 -->
<g id="edge6" class="edge">
<title>cl104&#45;&gt;cl76</title>
<path fill="none" stroke="#383838" d="M365.7621,-704.4917C357.5216,-690.5922 345.3399,-673.3134 330.5,-662 309.0647,-645.6585 281.9365,-633.9893 257.3477,-625.9025"/>
<polygon fill="#383838" stroke="#383838" points="247.7091,-622.869 258.5989,-621.5788 252.4785,-624.3701 257.2479,-625.8712 257.2479,-625.8712 257.2479,-625.8712 252.4785,-624.3701 255.8969,-630.1636 247.7091,-622.869 247.7091,-622.869"/>
<text text-anchor="start" x="342.5" y="-664.6" font-family="Courier,monospace" font-size="13.00" fill="#000000">selectIdp</text>
</g>
</g>
</svg>
