<?xml version="1.0" encoding="UTF-8" standalone="no"?>
<!DOCTYPE svg PUBLIC "-//W3C//DTD SVG 1.1//EN"
 "http://www.w3.org/Graphics/SVG/1.1/DTD/svg11.dtd">
<!-- Generated by graphviz version 2.40.1 (20161225.0304)
 -->
<!-- Title: unix Pages: 1 -->
<svg xmlns="http://www.w3.org/2000/svg" xmlns:xlink="http://www.w3.org/1999/xlink" style="width:657;height:831;" width="657pt" height="831pt" viewBox="0 0 657 831">
<g id="graph0" class="graph" transform="scale(1 1) rotate(0) translate(4 827)">
<title>unix</title>
<polygon fill="#ffffff" stroke="transparent" points="-4,4 -4,-827 652.5,-827 652.5,4 -4,4"/>
<!-- cl74 -->
<g id="node1" class="node">
<title>cl74</title>
<path fill="#f8f8f8" stroke="#383838" d="M138.5,-704.5C138.5,-704.5 226.5,-704.5 226.5,-704.5 232.5,-704.5 238.5,-710.5 238.5,-716.5 238.5,-716.5 238.5,-737.5 238.5,-737.5 238.5,-743.5 232.5,-749.5 226.5,-749.5 226.5,-749.5 138.5,-749.5 138.5,-749.5 132.5,-749.5 126.5,-743.5 126.5,-737.5 126.5,-737.5 126.5,-716.5 126.5,-716.5 126.5,-710.5 132.5,-704.5 138.5,-704.5"/>
<polygon fill="#f8f8f8" stroke="transparent" points="134.5,-727.5 134.5,-745.5 230.5,-745.5 230.5,-727.5 134.5,-727.5"/>
<text text-anchor="start" x="136.2925" y="-732.3" font-family="Courier,monospace" font-size="14.00" fill="#000000">authnFailed</text>
<polyline fill="none" stroke="#383838" points="126.5,-723.5 238.5,-723.5 "/>
<text text-anchor="start" x="181.125" y="-710.7" font-family="Times,serif" font-size="11.00" fill="#000000"> </text>
</g>
<!-- cl76 -->
<g id="node2" class="node">
<title>cl76</title>
<path fill="#f8f8f8" stroke="#383838" d="M188.5,-587.5C188.5,-587.5 276.5,-587.5 276.5,-587.5 282.5,-587.5 288.5,-593.5 288.5,-599.5 288.5,-599.5 288.5,-620.5 288.5,-620.5 288.5,-626.5 282.5,-632.5 276.5,-632.5 276.5,-632.5 188.5,-632.5 188.5,-632.5 182.5,-632.5 176.5,-626.5 176.5,-620.5 176.5,-620.5 176.5,-599.5 176.5,-599.5 176.5,-593.5 182.5,-587.5 188.5,-587.5"/>
<polygon fill="#f8f8f8" stroke="transparent" points="184.5,-610.5 184.5,-628.5 280.5,-628.5 280.5,-610.5 184.5,-610.5"/>
<text text-anchor="start" x="186.2925" y="-615.3" font-family="Courier,monospace" font-size="14.00" fill="#000000">idpSelected</text>
<polyline fill="none" stroke="#383838" points="176.5,-606.5 288.5,-606.5 "/>
<text text-anchor="start" x="231.125" y="-593.7" font-family="Times,serif" font-size="11.00" fill="#000000"> </text>
</g>
<!-- cl74&#45;&gt;cl76 -->
<g id="edge1" class="edge">
<title>cl74&#45;&gt;cl76</title>
<path fill="none" stroke="#383838" d="M147.2392,-704.2148C133.1763,-692.1696 122.2308,-676.837 131.2886,-662 139.7277,-648.1765 153.1418,-637.8738 167.479,-630.2546"/>
<polygon fill="#383838" stroke="#383838" points="176.489,-625.8498 169.4815,-634.2846 171.997,-628.0459 167.5051,-630.2419 167.5051,-630.2419 167.5051,-630.2419 171.997,-628.0459 165.5286,-626.1991 176.489,-625.8498 176.489,-625.8498"/>
<text text-anchor="start" x="131.5" y="-664.6" font-family="Courier,monospace" font-size="13.00" fill="#000000">selectIdp</text>
</g>
<!-- cl76&#45;&gt;cl74 -->
<g id="edge3" class="edge">
<title>cl76&#45;&gt;cl74</title>
<path fill="none" stroke="#383838" d="M222.7185,-632.8887C215.1207,-650.6675 204.4959,-675.5296 196.0746,-695.2353"/>
<polygon fill="#383838" stroke="#383838" points="192.1405,-704.4412 191.9323,-693.4773 194.1054,-699.8435 196.0703,-695.2457 196.0703,-695.2457 196.0703,-695.2457 194.1054,-699.8435 200.2083,-697.0141 192.1405,-704.4412 192.1405,-704.4412"/>
<text text-anchor="start" x="209.5" y="-664.6" font-family="Courier,monospace" font-size="13.00" fill="#000000">authenticationFailed</text>
</g>
<!-- cl83 -->
<g id="node3" class="node">
<title>cl83</title>
<path fill="#f8f8f8" stroke="#383838" d="M12,-235.5C12,-235.5 117,-235.5 117,-235.5 123,-235.5 129,-241.5 129,-247.5 129,-247.5 129,-268.5 129,-268.5 129,-274.5 123,-280.5 117,-280.5 117,-280.5 12,-280.5 12,-280.5 6,-280.5 0,-274.5 0,-268.5 0,-268.5 0,-247.5 0,-247.5 0,-241.5 6,-235.5 12,-235.5"/>
<polygon fill="#f8f8f8" stroke="transparent" points="8,-258.5 8,-276.5 121,-276.5 121,-258.5 8,-258.5"/>
<text text-anchor="start" x="10.3911" y="-263.3" font-family="Courier,monospace" font-size="14.00" fill="#000000">fraudResponse</text>
<polyline fill="none" stroke="#383838" points="0,-254.5 129,-254.5 "/>
<text text-anchor="start" x="63.125" y="-241.7" font-family="Times,serif" font-size="11.00" fill="#000000"> </text>
</g>
<!-- cl76&#45;&gt;cl83 -->
<g id="edge4" class="edge">
<title>cl76&#45;&gt;cl83</title>
<path fill="none" stroke="#383838" d="M204.1288,-587.2396C184.0109,-569.7124 157.7944,-543.8351 141.5,-516 98.2885,-442.1836 77.5103,-342.0767 69.1729,-290.9771"/>
<polygon fill="#383838" stroke="#383838" points="67.579,-280.844 73.5782,-290.0232 68.3559,-285.7832 69.1329,-290.7225 69.1329,-290.7225 69.1329,-290.7225 68.3559,-285.7832 64.6875,-291.4218 67.579,-280.844 67.579,-280.844"/>
<text text-anchor="start" x="172.5" y="-547.6" font-family="Courier,monospace" font-size="13.00" fill="#000000">fraudResponse</text>
</g>
<!-- cl111 -->
<g id="node6" class="node">
<title>cl111</title>
<path fill="#f8f8f8" stroke="#383838" d="M166.5,-.5C166.5,-.5 636.5,-.5 636.5,-.5 642.5,-.5 648.5,-6.5 648.5,-12.5 648.5,-12.5 648.5,-503.5 648.5,-503.5 648.5,-509.5 642.5,-515.5 636.5,-515.5 636.5,-515.5 166.5,-515.5 166.5,-515.5 160.5,-515.5 154.5,-509.5 154.5,-503.5 154.5,-503.5 154.5,-12.5 154.5,-12.5 154.5,-6.5 160.5,-.5 166.5,-.5"/>
<polygon fill="#f8f8f8" stroke="transparent" points="366,-493.5 366,-511.5 437,-511.5 437,-493.5 366,-493.5"/>
<text text-anchor="start" x="368.3945" y="-498.3" font-family="Courier,monospace" font-size="14.00" fill="#000000">matching</text>
<polyline fill="none" stroke="#383838" points="154.5,-489.5 648.5,-489.5 "/>
<polygon fill="#ffffff" stroke="transparent" points="162.5,-4 162.5,-485 640.5,-485 640.5,-4 162.5,-4"/>
<svg x="164.5" y="-483.0">
<g id="graph0" class="graph" transform="scale(1 1) rotate(0) translate(4 474)">
<title>unix</title>
<polygon fill="#ffffff" stroke="transparent" points="-4,4 -4,-474 470.0063,-474 470.0063,4 -4,4"/>
<!-- cl93 -->
<g id="node1" class="node">
<title>cl93</title>
<path fill="#f8f8f8" stroke="#383838" d="M177.5,-234.5C177.5,-234.5 324.5,-234.5 324.5,-234.5 330.5,-234.5 336.5,-240.5 336.5,-246.5 336.5,-246.5 336.5,-267.5 336.5,-267.5 336.5,-273.5 330.5,-279.5 324.5,-279.5 324.5,-279.5 177.5,-279.5 177.5,-279.5 171.5,-279.5 165.5,-273.5 165.5,-267.5 165.5,-267.5 165.5,-246.5 165.5,-246.5 165.5,-240.5 171.5,-234.5 177.5,-234.5"/>
<polygon fill="#f8f8f8" stroke="transparent" points="173.5,-257.5 173.5,-275.5 328.5,-275.5 328.5,-257.5 173.5,-257.5"/>
<text text-anchor="start" x="175.8877" y="-262.3" font-family="Courier,monospace" font-size="14.00" fill="#000000">awaitingCycle3Data</text>
<polyline fill="none" stroke="#383838" points="165.5,-253.5 336.5,-253.5 "/>
<text text-anchor="start" x="249.625" y="-240.7" font-family="Times,serif" font-size="11.00" fill="#000000"> </text>
</g>
<!-- cl95 -->
<g id="node2" class="node">
<title>cl95</title>
<path fill="#f8f8f8" stroke="#383838" d="M12,-117.5C12,-117.5 134,-117.5 134,-117.5 140,-117.5 146,-123.5 146,-129.5 146,-129.5 146,-150.5 146,-150.5 146,-156.5 140,-162.5 134,-162.5 134,-162.5 12,-162.5 12,-162.5 6,-162.5 0,-156.5 0,-150.5 0,-150.5 0,-129.5 0,-129.5 0,-123.5 6,-117.5 12,-117.5"/>
<polygon fill="#f8f8f8" stroke="transparent" points="8,-140.5 8,-158.5 138,-158.5 138,-140.5 8,-140.5"/>
<text text-anchor="start" x="9.9897" y="-145.3" font-family="Courier,monospace" font-size="14.00" fill="#000000">cycle3Cancelled</text>
<polyline fill="none" stroke="#383838" points="0,-136.5 146,-136.5 "/>
<text text-anchor="start" x="71.625" y="-123.7" font-family="Times,serif" font-size="11.00" fill="#000000"> </text>
</g>
<!-- cl93&#45;&gt;cl95 -->
<g id="edge1" class="edge">
<title>cl93&#45;&gt;cl95</title>
<path fill="none" stroke="#383838" d="M165.4912,-236.1433C134.6629,-227.1133 104.749,-216.0839 93.7759,-205 85.1374,-196.2743 80.0883,-183.9602 77.1381,-172.3934"/>
<polygon fill="#383838" stroke="#383838" points="75.0483,-162.5299 81.5233,-171.38 76.0847,-167.4213 77.1211,-172.3127 77.1211,-172.3127 77.1211,-172.3127 76.0847,-167.4213 72.7188,-173.2455 75.0483,-162.5299 75.0483,-162.5299"/>
<text text-anchor="start" x="94" y="-194.6" font-family="Courier,monospace" font-size="13.00" fill="#000000">cancelCycle3Request</text>
</g>
<!-- cl98 -->
<g id="node3" class="node">
<title>cl98</title>
<path fill="#f8f8f8" stroke="#383838" d="M191,-117.5C191,-117.5 371,-117.5 371,-117.5 377,-117.5 383,-123.5 383,-129.5 383,-129.5 383,-150.5 383,-150.5 383,-156.5 377,-162.5 371,-162.5 371,-162.5 191,-162.5 191,-162.5 185,-162.5 179,-156.5 179,-150.5 179,-150.5 179,-129.5 179,-129.5 179,-123.5 185,-117.5 191,-117.5"/>
<polygon fill="#f8f8f8" stroke="transparent" points="187,-140.5 187,-158.5 375,-158.5 375,-140.5 187,-140.5"/>
<text text-anchor="start" x="188.585" y="-145.3" font-family="Courier,monospace" font-size="14.00" fill="#000000">cycle3MatchRequestSent</text>
<polyline fill="none" stroke="#383838" points="179,-136.5 383,-136.5 "/>
<text text-anchor="start" x="279.625" y="-123.7" font-family="Times,serif" font-size="11.00" fill="#000000"> </text>
</g>
<!-- cl93&#45;&gt;cl98 -->
<g id="edge2" class="edge">
<title>cl93&#45;&gt;cl98</title>
<path fill="none" stroke="#383838" d="M247.435,-234.3405C246.2146,-221.6649 245.9774,-205.7046 249.7759,-192 251.7482,-184.8839 254.9829,-177.7646 258.6404,-171.1777"/>
<polygon fill="#383838" stroke="#383838" points="263.8111,-162.5759 262.5159,-173.4651 261.2351,-166.8613 258.659,-171.1466 258.659,-171.1466 258.659,-171.1466 261.2351,-166.8613 254.8022,-168.8282 263.8111,-162.5759 263.8111,-162.5759"/>
<text text-anchor="start" x="250" y="-194.6" font-family="Courier,monospace" font-size="13.00" fill="#000000">submitCycle3Request</text>
</g>
<!-- cl107 -->
<g id="node6" class="node">
<title>cl107</title>
<path fill="#f8f8f8" stroke="#383838" d="M336,-.5C336,-.5 374,-.5 374,-.5 380,-.5 386,-6.5 386,-12.5 386,-12.5 386,-33.5 386,-33.5 386,-39.5 380,-45.5 374,-45.5 374,-45.5 336,-45.5 336,-45.5 330,-45.5 324,-39.5 324,-33.5 324,-33.5 324,-12.5 324,-12.5 324,-6.5 330,-.5 336,-.5"/>
<polygon fill="#f8f8f8" stroke="transparent" points="332,-23.5 332,-41.5 378,-41.5 378,-23.5 332,-23.5"/>
<text text-anchor="start" x="333.9966" y="-28.3" font-family="Courier,monospace" font-size="14.00" fill="#000000">match</text>
<polyline fill="none" stroke="#383838" points="324,-19.5 386,-19.5 "/>
<text text-anchor="start" x="353.625" y="-6.7" font-family="Times,serif" font-size="11.00" fill="#000000"> </text>
</g>
<!-- cl98&#45;&gt;cl107 -->
<g id="edge6" class="edge">
<title>cl98&#45;&gt;cl107</title>
<path fill="none" stroke="#383838" d="M295.2679,-117.4412C306.5585,-99.59 322.4598,-74.4487 335.0175,-54.594"/>
<polygon fill="#383838" stroke="#383838" points="340.5234,-45.8887 338.9811,-56.7456 337.8507,-50.1145 335.178,-54.3402 335.178,-54.3402 335.178,-54.3402 337.8507,-50.1145 331.3748,-51.9348 340.5234,-45.8887 340.5234,-45.8887"/>
<text text-anchor="start" x="321" y="-77.6" font-family="Courier,monospace" font-size="13.00" fill="#000000">match</text>
</g>
<!-- cl101 -->
<g id="node4" class="node">
<title>cl101</title>
<ellipse fill="#000000" stroke="#000000" cx="340" cy="-463" rx="7" ry="7"/>
</g>
<!-- cl103 -->
<g id="node5" class="node">
<title>cl103</title>
<path fill="#f8f8f8" stroke="#383838" d="M233,-351.5C233,-351.5 447,-351.5 447,-351.5 453,-351.5 459,-357.5 459,-363.5 459,-363.5 459,-384.5 459,-384.5 459,-390.5 453,-396.5 447,-396.5 447,-396.5 233,-396.5 233,-396.5 227,-396.5 221,-390.5 221,-384.5 221,-384.5 221,-363.5 221,-363.5 221,-357.5 227,-351.5 233,-351.5"/>
<polygon fill="#f8f8f8" stroke="transparent" points="229,-374.5 229,-392.5 451,-392.5 451,-374.5 229,-374.5"/>
<text text-anchor="start" x="230.7822" y="-379.3" font-family="Courier,monospace" font-size="14.00" fill="#000000">cycle0And1MatchRequestSent</text>
<polyline fill="none" stroke="#383838" points="221,-370.5 459,-370.5 "/>
<text text-anchor="start" x="338.625" y="-357.7" font-family="Times,serif" font-size="11.00" fill="#000000"> </text>
</g>
<!-- cl101&#45;&gt;cl103 -->
<g id="edge3" class="edge">
<title>cl101&#45;&gt;cl103</title>
<path fill="none" stroke="#383838" d="M340,-455.7168C340,-445.0973 340,-424.6921 340,-406.9298"/>
<polygon fill="#383838" stroke="#383838" points="340,-396.8709 344.5001,-406.8709 340,-401.8709 340.0001,-406.8709 340.0001,-406.8709 340.0001,-406.8709 340,-401.8709 335.5001,-406.871 340,-396.8709 340,-396.8709"/>
</g>
<!-- cl103&#45;&gt;cl93 -->
<g id="edge4" class="edge">
<title>cl103&#45;&gt;cl93</title>
<path fill="none" stroke="#383838" d="M318.1034,-351.3957C309.889,-342.509 300.6846,-332.0438 292.981,-322 284.869,-311.4239 276.7389,-299.282 269.8233,-288.3767"/>
<polygon fill="#383838" stroke="#383838" points="264.3268,-279.5686 273.4386,-285.67 266.9739,-283.8104 269.6209,-288.0523 269.6209,-288.0523 269.6209,-288.0523 266.9739,-283.8104 265.8032,-290.4346 264.3268,-279.5686 264.3268,-279.5686"/>
<text text-anchor="start" x="293" y="-311.6" font-family="Courier,monospace" font-size="13.00" fill="#000000">awaitCycle3Data</text>
</g>
<!-- cl103&#45;&gt;cl107 -->
<g id="edge5" class="edge">
<title>cl103&#45;&gt;cl107</title>
<path fill="none" stroke="#383838" d="M385.0965,-351.2818C395.8568,-343.5491 405.9631,-333.8066 412,-322 457.6918,-232.6379 404.2122,-111.2967 373.5624,-54.6135"/>
<polygon fill="#383838" stroke="#383838" points="368.6769,-45.7646 377.4497,-52.344 371.0936,-50.1418 373.5103,-54.519 373.5103,-54.519 373.5103,-54.519 371.0936,-50.1418 369.5708,-56.694 368.6769,-45.7646 368.6769,-45.7646"/>
<text text-anchor="start" x="427" y="-194.6" font-family="Courier,monospace" font-size="13.00" fill="#000000">match</text>
</g>
</g>

</svg>
</g>
<!-- cl76&#45;&gt;cl111 -->
<g id="edge2" class="edge">
<title>cl76&#45;&gt;cl111</title>
<path fill="none" stroke="#383838" d="M256.1385,-587.3435C264.2711,-578.6992 272.9653,-568.4094 279.5,-558 286.2892,-547.1851 292.834,-535.9281 299.1243,-524.3923"/>
<polygon fill="#383838" stroke="#383838" points="303.8848,-515.5193 303.1225,-526.4587 301.521,-519.9253 299.1571,-524.3312 299.1571,-524.3312 299.1571,-524.3312 301.521,-519.9253 295.1917,-522.2037 303.8848,-515.5193 303.8848,-515.5193"/>
<text text-anchor="start" x="284.5" y="-547.6" font-family="Courier,monospace" font-size="13.00" fill="#000000">authenticationSucceeded</text>
</g>
<!-- cl86 -->
<g id="node4" class="node">
<title>cl86</title>
<ellipse fill="#000000" stroke="#000000" cx="418.5" cy="-816" rx="7" ry="7"/>
</g>
<!-- cl88 -->
<g id="node5" class="node">
<title>cl88</title>
<path fill="#f8f8f8" stroke="#383838" d="M391.5,-704.5C391.5,-704.5 445.5,-704.5 445.5,-704.5 451.5,-704.5 457.5,-710.5 457.5,-716.5 457.5,-716.5 457.5,-737.5 457.5,-737.5 457.5,-743.5 451.5,-749.5 445.5,-749.5 445.5,-749.5 391.5,-749.5 391.5,-749.5 385.5,-749.5 379.5,-743.5 379.5,-737.5 379.5,-737.5 379.5,-716.5 379.5,-716.5 379.5,-710.5 385.5,-704.5 391.5,-704.5"/>
<polygon fill="#f8f8f8" stroke="transparent" points="387.5,-727.5 387.5,-745.5 449.5,-745.5 449.5,-727.5 387.5,-727.5"/>
<text text-anchor="start" x="389.0952" y="-732.3" font-family="Courier,monospace" font-size="14.00" fill="#000000">started</text>
<polyline fill="none" stroke="#383838" points="379.5,-723.5 457.5,-723.5 "/>
<text text-anchor="start" x="417.125" y="-710.7" font-family="Times,serif" font-size="11.00" fill="#000000"> </text>
</g>
<!-- cl86&#45;&gt;cl88 -->
<g id="edge5" class="edge">
<title>cl86&#45;&gt;cl88</title>
<path fill="none" stroke="#383838" d="M418.5,-808.7168C418.5,-798.0973 418.5,-777.6921 418.5,-759.9298"/>
<polygon fill="#383838" stroke="#383838" points="418.5,-749.8709 423.0001,-759.8709 418.5,-754.8709 418.5001,-759.8709 418.5001,-759.8709 418.5001,-759.8709 418.5,-754.8709 414.0001,-759.871 418.5,-749.8709 418.5,-749.8709"/>
</g>
<!-- cl88&#45;&gt;cl76 -->
<g id="edge6" class="edge">
<title>cl88&#45;&gt;cl76</title>
<path fill="none" stroke="#383838" d="M406.7621,-704.4917C398.5216,-690.5922 386.3399,-673.3134 371.5,-662 350.0647,-645.6585 322.9365,-633.9893 298.3477,-625.9025"/>
<polygon fill="#383838" stroke="#383838" points="288.7091,-622.869 299.5989,-621.5788 293.4785,-624.3701 298.2479,-625.8712 298.2479,-625.8712 298.2479,-625.8712 293.4785,-624.3701 296.8969,-630.1636 288.7091,-622.869 288.7091,-622.869"/>
<text text-anchor="start" x="384.5" y="-664.6" font-family="Courier,monospace" font-size="13.00" fill="#000000">selectIdp</text>
</g>
</g>
</svg>
