<?xml version="1.0" encoding="UTF-8" standalone="no"?>
<!DOCTYPE svg PUBLIC "-//W3C//DTD SVG 1.1//EN"
 "http://www.w3.org/Graphics/SVG/1.1/DTD/svg11.dtd">
<!-- Generated by graphviz version 2.40.1 (20161225.0304)
 -->
<!-- Title: unix Pages: 1 -->
<svg xmlns="http://www.w3.org/2000/svg" xmlns:xlink="http://www.w3.org/1999/xlink" style="width:352;height:361;" width="352pt" height="361pt" viewBox="0 0 352 361">
<g id="graph0" class="graph" transform="scale(1 1) rotate(0) translate(4 357)">
<title>unix</title>
<polygon fill="#ffffff" stroke="transparent" points="-4,4 -4,-357 348,-357 348,4 -4,4"/>
<!-- cl56 -->
<g id="node1" class="node">
<title>cl56</title>
<path fill="#f8f8f8" stroke="#383838" d="M25,-234.5C25,-234.5 113,-234.5 113,-234.5 119,-234.5 125,-240.5 125,-246.5 125,-246.5 125,-267.5 125,-267.5 125,-273.5 119,-279.5 113,-279.5 113,-279.5 25,-279.5 25,-279.5 19,-279.5 13,-273.5 13,-267.5 13,-267.5 13,-246.5 13,-246.5 13,-240.5 19,-234.5 25,-234.5"/>
<polygon fill="#f8f8f8" stroke="transparent" points="21,-257.5 21,-275.5 117,-275.5 117,-257.5 21,-257.5"/>
<text text-anchor="start" x="22.7925" y="-262.3" font-family="Courier,monospace" font-size="14.00" fill="#000000">authnFailed</text>
<polyline fill="none" stroke="#383838" points="13,-253.5 125,-253.5 "/>
<text text-anchor="start" x="67.625" y="-240.7" font-family="Times,serif" font-size="11.00" fill="#000000"> </text>
</g>
<!-- cl58 -->
<g id="node2" class="node">
<title>cl58</title>
<path fill="#f8f8f8" stroke="#383838" d="M75,-117.5C75,-117.5 163,-117.5 163,-117.5 169,-117.5 175,-123.5 175,-129.5 175,-129.5 175,-150.5 175,-150.5 175,-156.5 169,-162.5 163,-162.5 163,-162.5 75,-162.5 75,-162.5 69,-162.5 63,-156.5 63,-150.5 63,-150.5 63,-129.5 63,-129.5 63,-123.5 69,-117.5 75,-117.5"/>
<polygon fill="#f8f8f8" stroke="transparent" points="71,-140.5 71,-158.5 167,-158.5 167,-140.5 71,-140.5"/>
<text text-anchor="start" x="72.7925" y="-145.3" font-family="Courier,monospace" font-size="14.00" fill="#000000">idpSelected</text>
<polyline fill="none" stroke="#383838" points="63,-136.5 175,-136.5 "/>
<text text-anchor="start" x="117.625" y="-123.7" font-family="Times,serif" font-size="11.00" fill="#000000"> </text>
</g>
<!-- cl56&#45;&gt;cl58 -->
<g id="edge1" class="edge">
<title>cl56&#45;&gt;cl58</title>
<path fill="none" stroke="#383838" d="M33.7392,-234.2148C19.6763,-222.1696 8.7308,-206.837 17.7886,-192 26.2277,-178.1765 39.6418,-167.8738 53.979,-160.2546"/>
<polygon fill="#383838" stroke="#383838" points="62.989,-155.8498 55.9815,-164.2846 58.497,-158.0459 54.0051,-160.2419 54.0051,-160.2419 54.0051,-160.2419 58.497,-158.0459 52.0286,-156.1991 62.989,-155.8498 62.989,-155.8498"/>
<text text-anchor="start" x="18" y="-194.6" font-family="Courier,monospace" font-size="13.00" fill="#000000">selectIdp</text>
</g>
<!-- cl58&#45;&gt;cl56 -->
<g id="edge3" class="edge">
<title>cl58&#45;&gt;cl56</title>
<path fill="none" stroke="#383838" d="M109.2185,-162.8887C101.6207,-180.6675 90.9959,-205.5296 82.5746,-225.2353"/>
<polygon fill="#383838" stroke="#383838" points="78.6405,-234.4412 78.4323,-223.4773 80.6054,-229.8435 82.5703,-225.2457 82.5703,-225.2457 82.5703,-225.2457 80.6054,-229.8435 86.7083,-227.0141 78.6405,-234.4412 78.6405,-234.4412"/>
<text text-anchor="start" x="96" y="-194.6" font-family="Courier,monospace" font-size="13.00" fill="#000000">authenticationFailed</text>
</g>
<!-- cl61 -->
<g id="node3" class="node">
<title>cl61</title>
<path fill="#f8f8f8" stroke="#383838" d="M12,-.5C12,-.5 226,-.5 226,-.5 232,-.5 238,-6.5 238,-12.5 238,-12.5 238,-33.5 238,-33.5 238,-39.5 232,-45.5 226,-45.5 226,-45.5 12,-45.5 12,-45.5 6,-45.5 0,-39.5 0,-33.5 0,-33.5 0,-12.5 0,-12.5 0,-6.5 6,-.5 12,-.5"/>
<polygon fill="#f8f8f8" stroke="transparent" points="8,-23.5 8,-41.5 230,-41.5 230,-23.5 8,-23.5"/>
<text text-anchor="start" x="9.7822" y="-28.3" font-family="Courier,monospace" font-size="14.00" fill="#000000">cycle0And1MatchRequestSent</text>
<polyline fill="none" stroke="#383838" points="0,-19.5 238,-19.5 "/>
<text text-anchor="start" x="117.625" y="-6.7" font-family="Times,serif" font-size="11.00" fill="#000000"> </text>
</g>
<!-- cl58&#45;&gt;cl61 -->
<g id="edge2" class="edge">
<title>cl58&#45;&gt;cl61</title>
<path fill="none" stroke="#383838" d="M119,-117.4412C119,-99.992 119,-75.5775 119,-55.9434"/>
<polygon fill="#383838" stroke="#383838" points="119,-45.8887 123.5001,-55.8887 119,-50.8887 119.0001,-55.8887 119.0001,-55.8887 119.0001,-55.8887 119,-50.8887 114.5001,-55.8888 119,-45.8887 119,-45.8887"/>
<text text-anchor="start" x="119" y="-77.6" font-family="Courier,monospace" font-size="13.00" fill="#000000">authenticationSucceeded</text>
</g>
<!-- cl65 -->
<g id="node4" class="node">
<title>cl65</title>
<ellipse fill="#000000" stroke="#000000" cx="305" cy="-346" rx="7" ry="7"/>
</g>
<!-- cl67 -->
<g id="node5" class="node">
<title>cl67</title>
<path fill="#f8f8f8" stroke="#383838" d="M278,-234.5C278,-234.5 332,-234.5 332,-234.5 338,-234.5 344,-240.5 344,-246.5 344,-246.5 344,-267.5 344,-267.5 344,-273.5 338,-279.5 332,-279.5 332,-279.5 278,-279.5 278,-279.5 272,-279.5 266,-273.5 266,-267.5 266,-267.5 266,-246.5 266,-246.5 266,-240.5 272,-234.5 278,-234.5"/>
<polygon fill="#f8f8f8" stroke="transparent" points="274,-257.5 274,-275.5 336,-275.5 336,-257.5 274,-257.5"/>
<text text-anchor="start" x="275.5952" y="-262.3" font-family="Courier,monospace" font-size="14.00" fill="#000000">started</text>
<polyline fill="none" stroke="#383838" points="266,-253.5 344,-253.5 "/>
<text text-anchor="start" x="303.625" y="-240.7" font-family="Times,serif" font-size="11.00" fill="#000000"> </text>
</g>
<!-- cl65&#45;&gt;cl67 -->
<g id="edge4" class="edge">
<title>cl65&#45;&gt;cl67</title>
<path fill="none" stroke="#383838" d="M305,-338.7168C305,-328.0973 305,-307.6921 305,-289.9298"/>
<polygon fill="#383838" stroke="#383838" points="305,-279.8709 309.5001,-289.8709 305,-284.8709 305.0001,-289.8709 305.0001,-289.8709 305.0001,-289.8709 305,-284.8709 300.5001,-289.871 305,-279.8709 305,-279.8709"/>
</g>
<!-- cl67&#45;&gt;cl58 -->
<g id="edge5" class="edge">
<title>cl67&#45;&gt;cl58</title>
<path fill="none" stroke="#383838" d="M293.2621,-234.4917C285.0216,-220.5922 272.8399,-203.3134 258,-192 236.5647,-175.6585 209.4365,-163.9893 184.8477,-155.9025"/>
<polygon fill="#383838" stroke="#383838" points="175.2091,-152.869 186.0989,-151.5788 179.9785,-154.3701 184.7479,-155.8712 184.7479,-155.8712 184.7479,-155.8712 179.9785,-154.3701 183.3969,-160.1636 175.2091,-152.869 175.2091,-152.869"/>
<text text-anchor="start" x="270" y="-194.6" font-family="Courier,monospace" font-size="13.00" fill="#000000">selectIdp</text>
</g>
</g>
</svg>
