<?xml version="1.0" encoding="UTF-8" standalone="no"?>
<!DOCTYPE svg PUBLIC "-//W3C//DTD SVG 1.1//EN"
 "http://www.w3.org/Graphics/SVG/1.1/DTD/svg11.dtd">
<!-- Generated by graphviz version 2.40.1 (20161225.0304)
 -->
<!-- Title: unix Pages: 1 -->
<svg xmlns="http://www.w3.org/2000/svg" xmlns:xlink="http://www.w3.org/1999/xlink" style="width:381;height:714;" width="381pt" height="714pt" viewBox="0 0 381 714">
<g id="graph0" class="graph" transform="scale(1 1) rotate(0) translate(4 710)">
<title>unix</title>
<polygon fill="#ffffff" stroke="transparent" points="-4,4 -4,-710 376.5,-710 376.5,4 -4,4"/>
<!-- cl16 -->
<g id="node1" class="node">
<title>cl16</title>
<path fill="#f8f8f8" stroke="#383838" d="M53.5,-587.5C53.5,-587.5 141.5,-587.5 141.5,-587.5 147.5,-587.5 153.5,-593.5 153.5,-599.5 153.5,-599.5 153.5,-620.5 153.5,-620.5 153.5,-626.5 147.5,-632.5 141.5,-632.5 141.5,-632.5 53.5,-632.5 53.5,-632.5 47.5,-632.5 41.5,-626.5 41.5,-620.5 41.5,-620.5 41.5,-599.5 41.5,-599.5 41.5,-593.5 47.5,-587.5 53.5,-587.5"/>
<polygon fill="#f8f8f8" stroke="transparent" points="49.5,-610.5 49.5,-628.5 145.5,-628.5 145.5,-610.5 49.5,-610.5"/>
<text text-anchor="start" x="51.2925" y="-615.3" font-family="Courier,monospace" font-size="14.00" fill="#000000">authnFailed</text>
<polyline fill="none" stroke="#383838" points="41.5,-606.5 153.5,-606.5 "/>
<text text-anchor="start" x="96.125" y="-593.7" font-family="Times,serif" font-size="11.00" fill="#000000"> </text>
</g>
<!-- cl18 -->
<g id="node2" class="node">
<title>cl18</title>
<path fill="#f8f8f8" stroke="#383838" d="M103.5,-470.5C103.5,-470.5 191.5,-470.5 191.5,-470.5 197.5,-470.5 203.5,-476.5 203.5,-482.5 203.5,-482.5 203.5,-503.5 203.5,-503.5 203.5,-509.5 197.5,-515.5 191.5,-515.5 191.5,-515.5 103.5,-515.5 103.5,-515.5 97.5,-515.5 91.5,-509.5 91.5,-503.5 91.5,-503.5 91.5,-482.5 91.5,-482.5 91.5,-476.5 97.5,-470.5 103.5,-470.5"/>
<polygon fill="#f8f8f8" stroke="transparent" points="99.5,-493.5 99.5,-511.5 195.5,-511.5 195.5,-493.5 99.5,-493.5"/>
<text text-anchor="start" x="101.2925" y="-498.3" font-family="Courier,monospace" font-size="14.00" fill="#000000">idpSelected</text>
<polyline fill="none" stroke="#383838" points="91.5,-489.5 203.5,-489.5 "/>
<text text-anchor="start" x="146.125" y="-476.7" font-family="Times,serif" font-size="11.00" fill="#000000"> </text>
</g>
<!-- cl16&#45;&gt;cl18 -->
<g id="edge1" class="edge">
<title>cl16&#45;&gt;cl18</title>
<path fill="none" stroke="#383838" d="M62.2392,-587.2148C48.1763,-575.1696 37.2308,-559.837 46.2886,-545 54.7277,-531.1765 68.1418,-520.8738 82.479,-513.2546"/>
<polygon fill="#383838" stroke="#383838" points="91.489,-508.8498 84.4815,-517.2846 86.997,-511.0459 82.5051,-513.2419 82.5051,-513.2419 82.5051,-513.2419 86.997,-511.0459 80.5286,-509.1991 91.489,-508.8498 91.489,-508.8498"/>
<text text-anchor="start" x="46.5" y="-547.6" font-family="Courier,monospace" font-size="13.00" fill="#000000">selectIdp</text>
</g>
<!-- cl18&#45;&gt;cl16 -->
<g id="edge3" class="edge">
<title>cl18&#45;&gt;cl16</title>
<path fill="none" stroke="#383838" d="M137.7185,-515.8887C130.1207,-533.6675 119.4959,-558.5296 111.0746,-578.2353"/>
<polygon fill="#383838" stroke="#383838" points="107.1405,-587.4412 106.9323,-576.4773 109.1054,-582.8435 111.0703,-578.2457 111.0703,-578.2457 111.0703,-578.2457 109.1054,-582.8435 115.2083,-580.0141 107.1405,-587.4412 107.1405,-587.4412"/>
<text text-anchor="start" x="124.5" y="-547.6" font-family="Courier,monospace" font-size="13.00" fill="#000000">authenticationFailed</text>
</g>
<!-- cl29 -->
<g id="node5" class="node">
<title>cl29</title>
<path fill="#f8f8f8" stroke="#383838" d="M12,-.5C12,-.5 283,-.5 283,-.5 289,-.5 295,-6.5 295,-12.5 295,-12.5 295,-386.5 295,-386.5 295,-392.5 289,-398.5 283,-398.5 283,-398.5 12,-398.5 12,-398.5 6,-398.5 0,-392.5 0,-386.5 0,-386.5 0,-12.5 0,-12.5 0,-6.5 6,-.5 12,-.5"/>
<polygon fill="#f8f8f8" stroke="transparent" points="112,-376.5 112,-394.5 183,-394.5 183,-376.5 112,-376.5"/>
<text text-anchor="start" x="114.3945" y="-381.3" font-family="Courier,monospace" font-size="14.00" fill="#000000">matching</text>
<polyline fill="none" stroke="#383838" points="0,-372.5 295,-372.5 "/>
<polygon fill="#ffffff" stroke="transparent" points="8.5,-4.5 8.5,-368.5 287.5,-368.5 287.5,-4.5 8.5,-4.5"/>
<svg x="10.5" y="-366.5">
<g id="graph0" class="graph" transform="scale(1 1) rotate(0) translate(4 357)">
<title>unix</title>
<polygon fill="#ffffff" stroke="transparent" points="-4,4 -4,-357 271.2241,-357 271.2241,4 -4,4"/>
<!-- cl5 -->
<g id="node1" class="node">
<title>cl5</title>
<ellipse fill="#000000" stroke="#000000" cx="119" cy="-346" rx="7" ry="7"/>
</g>
<!-- cl7 -->
<g id="node2" class="node">
<title>cl7</title>
<path fill="#f8f8f8" stroke="#383838" d="M12,-234.5C12,-234.5 226,-234.5 226,-234.5 232,-234.5 238,-240.5 238,-246.5 238,-246.5 238,-267.5 238,-267.5 238,-273.5 232,-279.5 226,-279.5 226,-279.5 12,-279.5 12,-279.5 6,-279.5 0,-273.5 0,-267.5 0,-267.5 0,-246.5 0,-246.5 0,-240.5 6,-234.5 12,-234.5"/>
<polygon fill="#f8f8f8" stroke="transparent" points="8,-257.5 8,-275.5 230,-275.5 230,-257.5 8,-257.5"/>
<text text-anchor="start" x="9.7822" y="-262.3" font-family="Courier,monospace" font-size="14.00" fill="#000000">cycle0And1MatchRequestSent</text>
<polyline fill="none" stroke="#383838" points="0,-253.5 238,-253.5 "/>
<text text-anchor="start" x="117.625" y="-240.7" font-family="Times,serif" font-size="11.00" fill="#000000"> </text>
</g>
<!-- cl5&#45;&gt;cl7 -->
<g id="edge1" class="edge">
<title>cl5&#45;&gt;cl7</title>
<path fill="none" stroke="#383838" d="M119,-338.7168C119,-328.0973 119,-307.6921 119,-289.9298"/>
<polygon fill="#383838" stroke="#383838" points="119,-279.8709 123.5001,-289.8709 119,-284.8709 119.0001,-289.8709 119.0001,-289.8709 119.0001,-289.8709 119,-284.8709 114.5001,-289.871 119,-279.8709 119,-279.8709"/>
</g>
<!-- cl10 -->
<g id="node3" class="node">
<title>cl10</title>
<path fill="#f8f8f8" stroke="#383838" d="M45.5,-117.5C45.5,-117.5 192.5,-117.5 192.5,-117.5 198.5,-117.5 204.5,-123.5 204.5,-129.5 204.5,-129.5 204.5,-150.5 204.5,-150.5 204.5,-156.5 198.5,-162.5 192.5,-162.5 192.5,-162.5 45.5,-162.5 45.5,-162.5 39.5,-162.5 33.5,-156.5 33.5,-150.5 33.5,-150.5 33.5,-129.5 33.5,-129.5 33.5,-123.5 39.5,-117.5 45.5,-117.5"/>
<polygon fill="#f8f8f8" stroke="transparent" points="41.5,-140.5 41.5,-158.5 196.5,-158.5 196.5,-140.5 41.5,-140.5"/>
<text text-anchor="start" x="43.8877" y="-145.3" font-family="Courier,monospace" font-size="14.00" fill="#000000">awaitingCycle3Data</text>
<polyline fill="none" stroke="#383838" points="33.5,-136.5 204.5,-136.5 "/>
<text text-anchor="start" x="117.625" y="-123.7" font-family="Times,serif" font-size="11.00" fill="#000000"> </text>
</g>
<!-- cl7&#45;&gt;cl10 -->
<g id="edge2" class="edge">
<title>cl7&#45;&gt;cl10</title>
<path fill="none" stroke="#383838" d="M119,-234.4412C119,-216.992 119,-192.5775 119,-172.9434"/>
<polygon fill="#383838" stroke="#383838" points="119,-162.8887 123.5001,-172.8887 119,-167.8887 119.0001,-172.8887 119.0001,-172.8887 119.0001,-172.8887 119,-167.8887 114.5001,-172.8888 119,-162.8887 119,-162.8887"/>
<text text-anchor="start" x="119" y="-194.6" font-family="Courier,monospace" font-size="13.00" fill="#000000">awaitCycle3Data</text>
</g>
<!-- cl13 -->
<g id="node4" class="node">
<title>cl13</title>
<path fill="#f8f8f8" stroke="#383838" d="M29,-.5C29,-.5 209,-.5 209,-.5 215,-.5 221,-6.5 221,-12.5 221,-12.5 221,-33.5 221,-33.5 221,-39.5 215,-45.5 209,-45.5 209,-45.5 29,-45.5 29,-45.5 23,-45.5 17,-39.5 17,-33.5 17,-33.5 17,-12.5 17,-12.5 17,-6.5 23,-.5 29,-.5"/>
<polygon fill="#f8f8f8" stroke="transparent" points="25,-23.5 25,-41.5 213,-41.5 213,-23.5 25,-23.5"/>
<text text-anchor="start" x="26.585" y="-28.3" font-family="Courier,monospace" font-size="14.00" fill="#000000">cycle3MatchRequestSent</text>
<polyline fill="none" stroke="#383838" points="17,-19.5 221,-19.5 "/>
<text text-anchor="start" x="117.625" y="-6.7" font-family="Times,serif" font-size="11.00" fill="#000000"> </text>
</g>
<!-- cl10&#45;&gt;cl13 -->
<g id="edge3" class="edge">
<title>cl10&#45;&gt;cl13</title>
<path fill="none" stroke="#383838" d="M119,-117.4412C119,-99.992 119,-75.5775 119,-55.9434"/>
<polygon fill="#383838" stroke="#383838" points="119,-45.8887 123.5001,-55.8887 119,-50.8887 119.0001,-55.8887 119.0001,-55.8887 119.0001,-55.8887 119,-50.8887 114.5001,-55.8888 119,-45.8887 119,-45.8887"/>
<text text-anchor="start" x="119" y="-77.6" font-family="Courier,monospace" font-size="13.00" fill="#000000">submitCycle3Request</text>
</g>
</g>

</svg>
</g>
<!-- cl18&#45;&gt;cl29 -->
<g id="edge2" class="edge">
<title>cl18&#45;&gt;cl29</title>
<path fill="none" stroke="#383838" d="M147.5,-470.4569C147.5,-455.2968 147.5,-433.6408 147.5,-409.0923"/>
<polygon fill="#383838" stroke="#383838" points="147.5,-398.7902 152.0001,-408.7902 147.5,-403.7902 147.5001,-408.7902 147.5001,-408.7902 147.5001,-408.7902 147.5,-403.7902 143.0001,-408.7903 147.5,-398.7902 147.5,-398.7902"/>
<text text-anchor="start" x="147.5" y="-430.6" font-family="Courier,monospace" font-size="13.00" fill="#000000">authenticationSucceeded</text>
</g>
<!-- cl23 -->
<g id="node3" class="node">
<title>cl23</title>
<ellipse fill="#000000" stroke="#000000" cx="333.5" cy="-699" rx="7" ry="7"/>
</g>
<!-- cl25 -->
<g id="node4" class="node">
<title>cl25</title>
<path fill="#f8f8f8" stroke="#383838" d="M306.5,-587.5C306.5,-587.5 360.5,-587.5 360.5,-587.5 366.5,-587.5 372.5,-593.5 372.5,-599.5 372.5,-599.5 372.5,-620.5 372.5,-620.5 372.5,-626.5 366.5,-632.5 360.5,-632.5 360.5,-632.5 306.5,-632.5 306.5,-632.5 300.5,-632.5 294.5,-626.5 294.5,-620.5 294.5,-620.5 294.5,-599.5 294.5,-599.5 294.5,-593.5 300.5,-587.5 306.5,-587.5"/>
<polygon fill="#f8f8f8" stroke="transparent" points="302.5,-610.5 302.5,-628.5 364.5,-628.5 364.5,-610.5 302.5,-610.5"/>
<text text-anchor="start" x="304.0952" y="-615.3" font-family="Courier,monospace" font-size="14.00" fill="#000000">started</text>
<polyline fill="none" stroke="#383838" points="294.5,-606.5 372.5,-606.5 "/>
<text text-anchor="start" x="332.125" y="-593.7" font-family="Times,serif" font-size="11.00" fill="#000000"> </text>
</g>
<!-- cl23&#45;&gt;cl25 -->
<g id="edge4" class="edge">
<title>cl23&#45;&gt;cl25</title>
<path fill="none" stroke="#383838" d="M333.5,-691.7168C333.5,-681.0973 333.5,-660.6921 333.5,-642.9298"/>
<polygon fill="#383838" stroke="#383838" points="333.5,-632.8709 338.0001,-642.8709 333.5,-637.8709 333.5001,-642.8709 333.5001,-642.8709 333.5001,-642.8709 333.5,-637.8709 329.0001,-642.871 333.5,-632.8709 333.5,-632.8709"/>
</g>
<!-- cl25&#45;&gt;cl18 -->
<g id="edge5" class="edge">
<title>cl25&#45;&gt;cl18</title>
<path fill="none" stroke="#383838" d="M321.7621,-587.4917C313.5216,-573.5922 301.3399,-556.3134 286.5,-545 265.0647,-528.6585 237.9365,-516.9893 213.3477,-508.9025"/>
<polygon fill="#383838" stroke="#383838" points="203.7091,-505.869 214.5989,-504.5788 208.4785,-507.3701 213.2479,-508.8712 213.2479,-508.8712 213.2479,-508.8712 208.4785,-507.3701 211.8969,-513.1636 203.7091,-505.869 203.7091,-505.869"/>
<text text-anchor="start" x="298.5" y="-547.6" font-family="Courier,monospace" font-size="13.00" fill="#000000">selectIdp</text>
</g>
</g>
</svg>
